  0
SECTION
  2
HEADER
  9
$ACADVER
  1
AC1018
  9
$ACADMAINTVER
 70
     0
  9
$DWGCODEPAGE
  3
ANSI_1252
  9
$INSBASE
 10
0.0
 20
0.0
 30
0.0
  9
$EXTMIN
 10
1.000000000000000E+20
 20
1.000000000000000E+20
 30
1.000000000000000E+20
  9
$EXTMAX
 10
-1.000000000000000E+20
 20
-1.000000000000000E+20
 30
-1.000000000000000E+20
  9
$LIMMIN
 10
0.0
 20
0.0
  9
$LIMMAX
 10
12.0
 20
9.0
  9
$ORTHOMODE
 70
     0
  9
$REGENMODE
 70
     1
  9
$FILLMODE
 70
     1
  9
$QTEXTMODE
 70
     0
  9
$MIRRTEXT
 70
     1
  9
$LTSCALE
 40
1.0
  9
$ATTMODE
 70
     1
  9
$TEXTSIZE
 40
0.2
  9
$TRACEWID
 40
0.05
  9
$TEXTSTYLE
  7
Standard
  9
$CLAYER
  8
0
  9
$CELTYPE
  6
ByLayer
  9
$CECOLOR
 62
   256
  9
$CELTSCALE
 40
1.0
  9
$DISPSILH
 70
     0
  9
$DIMSCALE
 40
1.0
  9
$DIMASZ
 40
0.18
  9
$DIMEXO
 40
0.0625
  9
$DIMDLI
 40
0.38
  9
$DIMRND
 40
0.0
  9
$DIMDLE
 40
0.0
  9
$DIMEXE
 40
0.18
  9
$DIMTP
 40
0.0
  9
$DIMTM
 40
0.0
  9
$DIMTXT
 40
0.18
  9
$DIMCEN
 40
0.09
  9
$DIMTSZ
 40
0.0
  9
$DIMTOL
 70
     0
  9
$DIMLIM
 70
     0
  9
$DIMTIH
 70
     1
  9
$DIMTOH
 70
     1
  9
$DIMSE1
 70
     0
  9
$DIMSE2
 70
     0
  9
$DIMTAD
 70
     0
  9
$DIMZIN
 70
     0
  9
$DIMBLK
  1

  9
$DIMASO
 70
     1
  9
$DIMSHO
 70
     1
  9
$DIMPOST
  1

  9
$DIMAPOST
  1

  9
$DIMALT
 70
     0
  9
$DIMALTD
 70
     2
  9
$DIMALTF
 40
25.4
  9
$DIMLFAC
 40
1.0
  9
$DIMTOFL
 70
     0
  9
$DIMTVP
 40
0.0
  9
$DIMTIX
 70
     0
  9
$DIMSOXD
 70
     0
  9
$DIMSAH
 70
     0
  9
$DIMBLK1
  1

  9
$DIMBLK2
  1

  9
$DIMSTYLE
  2
Standard
  9
$DIMCLRD
 70
     0
  9
$DIMCLRE
 70
     0
  9
$DIMCLRT
 70
     0
  9
$DIMTFAC
 40
1.0
  9
$DIMGAP
 40
0.09
  9
$DIMJUST
 70
     0
  9
$DIMSD1
 70
     0
  9
$DIMSD2
 70
     0
  9
$DIMTOLJ
 70
     1
  9
$DIMTZIN
 70
     0
  9
$DIMALTZ
 70
     0
  9
$DIMALTTZ
 70
     0
  9
$DIMUPT
 70
     0
  9
$DIMDEC
 70
     4
  9
$DIMTDEC
 70
     4
  9
$DIMALTU
 70
     2
  9
$DIMALTTD
 70
     2
  9
$DIMTXSTY
  7
Standard
  9
$DIMAUNIT
 70
     0
  9
$DIMADEC
 70
     0
  9
$DIMALTRND
 40
0.0
  9
$DIMAZIN
 70
     0
  9
$DIMDSEP
 70
    46
  9
$DIMATFIT
 70
     3
  9
$DIMFRAC
 70
     0
  9
$DIMLDRBLK
  1

  9
$DIMLUNIT
 70
     2
  9
$DIMLWD
 70
    -2
  9
$DIMLWE
 70
    -2
  9
$DIMTMOVE
 70
     0
  9
$LUNITS
 70
     2
  9
$LUPREC
 70
     4
  9
$SKETCHINC
 40
0.1
  9
$FILLETRAD
 40
0.5
  9
$AUNITS
 70
     0
  9
$AUPREC
 70
     0
  9
$MENU
  1
.
  9
$ELEVATION
 40
0.0
  9
$PELEVATION
 40
0.0
  9
$THICKNESS
 40
0.0
  9
$LIMCHECK
 70
     0
  9
$CHAMFERA
 40
0.5
  9
$CHAMFERB
 40
0.5
  9
$CHAMFERC
 40
1.0
  9
$CHAMFERD
 40
0.0
  9
$SKPOLY
 70
     0
  9
$TDCREATE
 40
2456939.450591099
  9
$TDUCREATE
 40
2456939.367257766
  9
$TDUPDATE
 40
2456939.450591146
  9
$TDUUPDATE
 40
2456939.367257813
  9
$TDINDWG
 40
0.0000000116
  9
$TDUSRTIMER
 40
0.0000000116
  9
$USRTIMER
 70
     1
  9
$ANGBASE
 50
0.0
  9
$ANGDIR
 70
     0
  9
$PDMODE
 70
     0
  9
$PDSIZE
 40
0.0
  9
$PLINEWID
 40
0.0
  9
$SPLFRAME
 70
     0
  9
$SPLINETYPE
 70
     6
  9
$SPLINESEGS
 70
     8
  9
$HANDSEED
  5
1C8
  9
$SURFTAB1
 70
     6
  9
$SURFTAB2
 70
     6
  9
$SURFTYPE
 70
     6
  9
$SURFU
 70
     6
  9
$SURFV
 70
     6
  9
$UCSBASE
  2

  9
$UCSNAME
  2

  9
$UCSORG
 10
0.0
 20
0.0
 30
0.0
  9
$UCSXDIR
 10
1.0
 20
0.0
 30
0.0
  9
$UCSYDIR
 10
0.0
 20
1.0
 30
0.0
  9
$UCSORTHOREF
  2

  9
$UCSORTHOVIEW
 70
     0
  9
$UCSORGTOP
 10
0.0
 20
0.0
 30
0.0
  9
$UCSORGBOTTOM
 10
0.0
 20
0.0
 30
0.0
  9
$UCSORGLEFT
 10
0.0
 20
0.0
 30
0.0
  9
$UCSORGRIGHT
 10
0.0
 20
0.0
 30
0.0
  9
$UCSORGFRONT
 10
0.0
 20
0.0
 30
0.0
  9
$UCSORGBACK
 10
0.0
 20
0.0
 30
0.0
  9
$PUCSBASE
  2

  9
$PUCSNAME
  2

  9
$PUCSORG
 10
0.0
 20
0.0
 30
0.0
  9
$PUCSXDIR
 10
1.0
 20
0.0
 30
0.0
  9
$PUCSYDIR
 10
0.0
 20
1.0
 30
0.0
  9
$PUCSORTHOREF
  2

  9
$PUCSORTHOVIEW
 70
     0
  9
$PUCSORGTOP
 10
0.0
 20
0.0
 30
0.0
  9
$PUCSORGBOTTOM
 10
0.0
 20
0.0
 30
0.0
  9
$PUCSORGLEFT
 10
0.0
 20
0.0
 30
0.0
  9
$PUCSORGRIGHT
 10
0.0
 20
0.0
 30
0.0
  9
$PUCSORGFRONT
 10
0.0
 20
0.0
 30
0.0
  9
$PUCSORGBACK
 10
0.0
 20
0.0
 30
0.0
  9
$USERI1
 70
     0
  9
$USERI2
 70
     0
  9
$USERI3
 70
     0
  9
$USERI4
 70
     0
  9
$USERI5
 70
     0
  9
$USERR1
 40
0.0
  9
$USERR2
 40
0.0
  9
$USERR3
 40
0.0
  9
$USERR4
 40
0.0
  9
$USERR5
 40
0.0
  9
$WORLDVIEW
 70
     1
  9
$SHADEDGE
 70
     3
  9
$SHADEDIF
 70
    70
  9
$TILEMODE
 70
     1
  9
$MAXACTVP
 70
    64
  9
$PINSBASE
 10
0.0
 20
0.0
 30
0.0
  9
$PLIMCHECK
 70
     0
  9
$PEXTMIN
 10
1.000000000000000E+20
 20
1.000000000000000E+20
 30
1.000000000000000E+20
  9
$PEXTMAX
 10
-1.000000000000000E+20
 20
-1.000000000000000E+20
 30
-1.000000000000000E+20
  9
$PLIMMIN
 10
0.0
 20
0.0
  9
$PLIMMAX
 10
12.0
 20
9.0
  9
$UNITMODE
 70
     0
  9
$VISRETAIN
 70
     1
  9
$PLINEGEN
 70
     0
  9
$PSLTSCALE
 70
     1
  9
$TREEDEPTH
 70
  3020
  9
$CMLSTYLE
  2
Standard
  9
$CMLJUST
 70
     0
  9
$CMLSCALE
 40
1.0
  9
$PROXYGRAPHICS
 70
     1
  9
$MEASUREMENT
 70
     0
  9
$CELWEIGHT
370
    -1
  9
$ENDCAPS
280
     0
  9
$JOINSTYLE
280
     0
  9
$LWDISPLAY
290
     1
  9
$INSUNITS
 70
     1
  9
$HYPERLINKBASE
  1

  9
$STYLESHEET
  1

  9
$XEDIT
290
     1
  9
$CEPSNTYPE
380
     0
  9
$PSTYLEMODE
290
     1
  9
$FINGERPRINTGUID
  2
{C0BA2E2F-24B9-436A-B828-583B153F64F3}
  9
$VERSIONGUID
  2
{FAEB1C32-E019-11D5-929B-00C0DF256EC4}
  9
$EXTNAMES
290
     1
  9
$PSVPSCALE
 40
0.0
  9
$OLESTARTUP
290
     0
  9
$SORTENTS
280
   127
  9
$INDEXCTL
280
     0
  9
$HIDETEXT
280
     1
  9
$XCLIPFRAME
290
     0
  9
$HALOGAP
280
     0
  9
$OBSCOLOR
 70
   257
  9
$OBSLTYPE
280
     0
  9
$INTERSECTIONDISPLAY
280
     0
  9
$INTERSECTIONCOLOR
 70
   257
  9
$DIMASSOC
280
     2
  9
$PROJECTNAME
  1

  0
ENDSEC
  0
SECTION
  2
CLASSES
  0
CLASS
  1
ACDBDICTIONARYWDFLT
  2
AcDbDictionaryWithDefault
  3
ObjectDBX Classes
 90
        0
 91
        4
280
     0
281
     0
  0
CLASS
  1
VISUALSTYLE
  2
AcDbVisualStyle
  3
ObjectDBX Classes
 90
     4095
 91
        4
280
     0
281
     0
  0
CLASS
  1
MATERIAL
  2
AcDbMaterial
  3
ObjectDBX Classes
 90
     1153
 91
        4
280
     0
281
     0
  0
CLASS
  1
SUN
  2
AcDbSun
  3
SCENEOE
 90
     1024
 91
        4
280
     0
281
     0
  0
ENDSEC
  0
SECTION
  2
TABLES
  0
TABLE
  2
VPORT
  5
8
330
0
100
AcDbSymbolTable
 70
     1
  0
VPORT
  5
29
330
8
100
AcDbSymbolTableRecord
100
AcDbViewportTableRecord
  2
*Active
 70
     0
 10
0.0
 20
0.0
 11
1.0
 21
1.0
 12
0.0
 22
0.0
 13
0.0
 23
0.0
 14
0.5
 24
0.5
 15
0.5
 25
0.5
 16
0.0
 26
0.0
 36
1.0
 17
148.5000416295416
 27
-105.0007777515277
 37
0.0
 40
210.0015555030554
 41
1.414275634995294
 42
50.0
 43
0.0
 44
0.0
 50
0.0
 51
0.0
 71
     0
 72
   100
 73
     1
 74
     3
 75
     0
 76
     0
 77
     0
 78
     0
281
     0
 65
     1
110
0.0
120
0.0
130
0.0
111
1.0
121
0.0
131
0.0
112
0.0
122
1.0
132
0.0
 79
     0
146
0.0
  0
ENDTAB
  0
TABLE
  2
LTYPE
  5
5
330
0
100
AcDbSymbolTable
 70
     1
  0
LTYPE
  5
14
330
5
100
AcDbSymbolTableRecord
100
AcDbLinetypeTableRecord
  2
ByBlock
 70
     0
  3

 72
    65
 73
     0
 40
0.0
  0
LTYPE
  5
15
330
5
100
AcDbSymbolTableRecord
100
AcDbLinetypeTableRecord
  2
ByLayer
 70
     0
  3

 72
    65
 73
     0
 40
0.0
  0
LTYPE
  5
16
330
5
100
AcDbSymbolTableRecord
100
AcDbLinetypeTableRecord
  2
Continuous
 70
     0
  3
Solid line
 72
    65
 73
     0
 40
0.0
  0
ENDTAB
  0
TABLE
  2
LAYER
  5
2
330
0
100
AcDbSymbolTable
 70
     2
  0
LAYER
  5
10
330
2
100
AcDbSymbolTableRecord
100
AcDbLayerTableRecord
  2
0
 70
     0
 62
     7
  6
Continuous
370
    -3
390
F
  0
LAYER
  5
40
330
2
100
AcDbSymbolTableRecord
100
AcDbLayerTableRecord
  2
Layer 1
 70
     0
 62
     7
  6
Continuous
370
    -3
390
F
  0
ENDTAB
  0
TABLE
  2
STYLE
  5
3
330
0
100
AcDbSymbolTable
 70
     1
  0
STYLE
  5
11
330
3
100
AcDbSymbolTableRecord
100
AcDbTextStyleTableRecord
  2
Standard
 70
     0
 40
0.0
 41
1.0
 50
0.0
 71
     0
 42
0.2
  3
txt
  4

  0
ENDTAB
  0
TABLE
  2
VIEW
  5
6
330
0
100
AcDbSymbolTable
 70
     0
  0
ENDTAB
  0
TABLE
  2
UCS
  5
7
330
0
100
AcDbSymbolTable
 70
     0
  0
ENDTAB
  0
TABLE
  2
APPID
  5
9
330
0
100
AcDbSymbolTable
 70
     1
  0
APPID
  5
12
330
9
100
AcDbSymbolTableRecord
100
AcDbRegAppTableRecord
  2
ACAD
 70
     0
  0
ENDTAB
  0
TABLE
  2
DIMSTYLE
  5
A
330
0
100
AcDbSymbolTable
 70
     1
100
AcDbDimStyleTable
  0
DIMSTYLE
105
27
330
A
100
AcDbSymbolTableRecord
100
AcDbDimStyleTableRecord
  2
Standard
 70
     0
178
     0
340
11
  0
ENDTAB
  0
TABLE
  2
BLOCK_RECORD
  5
1
330
0
100
AcDbSymbolTable
 70
     1
  0
BLOCK_RECORD
  5
1F
330
1
100
AcDbSymbolTableRecord
100
AcDbBlockTableRecord
  2
*Model_Space
340
22
  0
BLOCK_RECORD
  5
1B
330
1
100
AcDbSymbolTableRecord
100
AcDbBlockTableRecord
  2
*Paper_Space
340
1E
  0
BLOCK_RECORD
  5
23
330
1
100
AcDbSymbolTableRecord
100
AcDbBlockTableRecord
  2
*Paper_Space0
340
26
  0
ENDTAB
  0
ENDSEC
  0
SECTION
  2
BLOCKS
  0
BLOCK
  5
20
330
1F
100
AcDbEntity
  8
0
100
AcDbBlockBegin
  2
*Model_Space
 70
     0
 10
0.0
 20
0.0
 30
0.0
  3
*Model_Space
  1

  0
ENDBLK
  5
21
330
1F
100
AcDbEntity
  8
0
100
AcDbBlockEnd
  0
BLOCK
  5
1C
330
1B
100
AcDbEntity
 67
     1
  8
0
100
AcDbBlockBegin
  2
*Paper_Space
 70
     0
 10
0.0
 20
0.0
 30
0.0
  3
*Paper_Space
  1

  0
ENDBLK
  5
1D
330
1B
100
AcDbEntity
 67
     1
  8
0
100
AcDbBlockEnd
  0
BLOCK
  5
24
330
23
100
AcDbEntity
  8
0
100
AcDbBlockBegin
  2
*Paper_Space0
 70
     0
 10
0.0
 20
0.0
 30
0.0
  3
*Paper_Space0
  1

  0
ENDBLK
  5
25
330
23
100
AcDbEntity
  8
0
100
AcDbBlockEnd
  0
ENDSEC
  0
SECTION
  2
ENTITIES
  0
POLYLINE
  5
41
330
1F
100
AcDbEntity
  8
Layer 1
 62
     1
370
     9
100
AcDb2dPolyline
 66
     1
 10
0.0
 20
0.0
 30
0.0
  0
VERTEX
  5
42
330
41
100
AcDbEntity
  8
Layer 1
 62
     1
370
     9
100
AcDbVertex
100
AcDb2dVertex
 10
355.8480113932475
 20
-71.75305277829993
 30
0.0
  0
VERTEX
  5
43
330
41
100
AcDbEntity
  8
Layer 1
 62
     1
370
     9
100
AcDbVertex
100
AcDb2dVertex
 10
355.8480113932475
 20
-55.75304941599116
 30
0.0
  0
VERTEX
  5
44
330
41
100
AcDbEntity
  8
Layer 1
 62
     1
370
     9
100
AcDbVertex
100
AcDb2dVertex
 10
339.8480080309397
 20
-55.75304941599116
 30
0.0
  0
VERTEX
  5
45
330
41
100
AcDbEntity
  8
Layer 1
 62
     1
370
     9
100
AcDbVertex
100
AcDb2dVertex
 10
339.8480080309397
 20
-63.75307262897805
 30
0.0
  0
VERTEX
  5
46
330
41
100
AcDbEntity
  8
Layer 1
 62
     1
370
     9
100
AcDbVertex
100
AcDb2dVertex
 10
317.1813617214748
 20
-63.75307262897805
 30
0.0
  0
VERTEX
  5
47
330
41
100
AcDbEntity
  8
Layer 1
 62
     1
370
     9
100
AcDbVertex
100
AcDb2dVertex
 10
317.1813617214748
 20
-55.75304941599116
 30
0.0
  0
VERTEX
  5
48
330
41
100
AcDbEntity
  8
Layer 1
 62
     1
370
     9
100
AcDbVertex
100
AcDb2dVertex
 10
294.5147154120093
 20
-55.75304941599116
 30
0.0
  0
VERTEX
  5
49
330
41
100
AcDbEntity
  8
Layer 1
 62
     1
370
     9
100
AcDbVertex
100
AcDb2dVertex
 10
294.5147154120093
 20
-63.75307262897805
 30
0.0
  0
VERTEX
  5
4A
330
41
100
AcDbEntity
  8
Layer 1
 62
     1
370
     9
100
AcDbVertex
100
AcDb2dVertex
 10
271.8480691025443
 20
-63.75307262897805
 30
0.0
  0
VERTEX
  5
4B
330
41
100
AcDbEntity
  8
Layer 1
 62
     1
370
     9
100
AcDbVertex
100
AcDb2dVertex
 10
271.8480691025443
 20
-55.75304941599116
 30
0.0
  0
VERTEX
  5
4C
330
41
100
AcDbEntity
  8
Layer 1
 62
     1
370
     9
100
AcDbVertex
100
AcDb2dVertex
 10
255.8480657402359
 20
-55.75304941599116
 30
0.0
  0
VERTEX
  5
4D
330
41
100
AcDbEntity
  8
Layer 1
 62
     1
370
     9
100
AcDbVertex
100
AcDb2dVertex
 10
255.8480657402359
 20
-71.75305277829993
 30
0.0
  0
VERTEX
  5
4E
330
41
100
AcDbEntity
  8
Layer 1
 62
     1
370
     9
100
AcDbVertex
100
AcDb2dVertex
 10
263.8480889532228
 20
-71.75305277829993
 30
0.0
  0
VERTEX
  5
4F
330
41
100
AcDbEntity
  8
Layer 1
 62
     1
370
     9
100
AcDbVertex
100
AcDb2dVertex
 10
263.8480889532228
 20
-94.41969908776514
 30
0.0
  0
VERTEX
  5
50
330
41
100
AcDbEntity
  8
Layer 1
 62
     1
370
     9
100
AcDbVertex
100
AcDb2dVertex
 10
255.8480657402359
 20
-94.41969908776514
 30
0.0
  0
VERTEX
  5
51
330
41
100
AcDbEntity
  8
Layer 1
 62
     1
370
     9
100
AcDbVertex
100
AcDb2dVertex
 10
255.8480657402359
 20
-117.0863453972304
 30
0.0
  0
VERTEX
  5
52
330
41
100
AcDbEntity
  8
Layer 1
 62
     1
370
     9
100
AcDbVertex
100
AcDb2dVertex
 10
263.8480889532228
 20
-117.0863453972304
 30
0.0
  0
VERTEX
  5
53
330
41
100
AcDbEntity
  8
Layer 1
 62
     1
370
     9
100
AcDbVertex
100
AcDb2dVertex
 10
263.8480889532228
 20
-139.7529917066959
 30
0.0
  0
VERTEX
  5
54
330
41
100
AcDbEntity
  8
Layer 1
 62
     1
370
     9
100
AcDbVertex
100
AcDb2dVertex
 10
255.8480657402359
 20
-139.7529917066959
 30
0.0
  0
VERTEX
  5
55
330
41
100
AcDbEntity
  8
Layer 1
 62
     1
370
     9
100
AcDbVertex
100
AcDb2dVertex
 10
255.8480657402359
 20
-155.7529950690031
 30
0.0
  0
VERTEX
  5
56
330
41
100
AcDbEntity
  8
Layer 1
 62
     1
370
     9
100
AcDbVertex
100
AcDb2dVertex
 10
271.8480691025443
 20
-155.7529950690031
 30
0.0
  0
VERTEX
  5
57
330
41
100
AcDbEntity
  8
Layer 1
 62
     1
370
     9
100
AcDbVertex
100
AcDb2dVertex
 10
271.8480691025443
 20
-147.7529718560162
 30
0.0
  0
VERTEX
  5
58
330
41
100
AcDbEntity
  8
Layer 1
 62
     1
370
     9
100
AcDbVertex
100
AcDb2dVertex
 10
294.5147154120093
 20
-147.7529718560162
 30
0.0
  0
VERTEX
  5
59
330
41
100
AcDbEntity
  8
Layer 1
 62
     1
370
     9
100
AcDbVertex
100
AcDb2dVertex
 10
294.5147154120093
 20
-155.7529950690031
 30
0.0
  0
VERTEX
  5
5A
330
41
100
AcDbEntity
  8
Layer 1
 62
     1
370
     9
100
AcDbVertex
100
AcDb2dVertex
 10
317.1813617214748
 20
-155.7529950690031
 30
0.0
  0
VERTEX
  5
5B
330
41
100
AcDbEntity
  8
Layer 1
 62
     1
370
     9
100
AcDbVertex
100
AcDb2dVertex
 10
317.1813617214748
 20
-147.7529718560162
 30
0.0
  0
VERTEX
  5
5C
330
41
100
AcDbEntity
  8
Layer 1
 62
     1
370
     9
100
AcDbVertex
100
AcDb2dVertex
 10
339.8480080309397
 20
-147.7529718560162
 30
0.0
  0
VERTEX
  5
5D
330
41
100
AcDbEntity
  8
Layer 1
 62
     1
370
     9
100
AcDbVertex
100
AcDb2dVertex
 10
339.8480080309397
 20
-155.7529950690031
 30
0.0
  0
VERTEX
  5
5E
330
41
100
AcDbEntity
  8
Layer 1
 62
     1
370
     9
100
AcDbVertex
100
AcDb2dVertex
 10
355.8480113932475
 20
-155.7529950690031
 30
0.0
  0
VERTEX
  5
5F
330
41
100
AcDbEntity
  8
Layer 1
 62
     1
370
     9
100
AcDbVertex
100
AcDb2dVertex
 10
355.8480113932475
 20
-139.7529917066959
 30
0.0
  0
VERTEX
  5
60
330
41
100
AcDbEntity
  8
Layer 1
 62
     1
370
     9
100
AcDbVertex
100
AcDb2dVertex
 10
347.8479881802612
 20
-139.7529917066959
 30
0.0
  0
VERTEX
  5
61
330
41
100
AcDbEntity
  8
Layer 1
 62
     1
370
     9
100
AcDbVertex
100
AcDb2dVertex
 10
347.8479881802612
 20
-117.0863453972304
 30
0.0
  0
VERTEX
  5
62
330
41
100
AcDbEntity
  8
Layer 1
 62
     1
370
     9
100
AcDbVertex
100
AcDb2dVertex
 10
355.8480113932475
 20
-117.0863453972304
 30
0.0
  0
VERTEX
  5
63
330
41
100
AcDbEntity
  8
Layer 1
 62
     1
370
     9
100
AcDbVertex
100
AcDb2dVertex
 10
355.8480113932475
 20
-94.41969908776514
 30
0.0
  0
VERTEX
  5
64
330
41
100
AcDbEntity
  8
Layer 1
 62
     1
370
     9
100
AcDbVertex
100
AcDb2dVertex
 10
347.8479881802612
 20
-94.41969908776514
 30
0.0
  0
VERTEX
  5
65
330
41
100
AcDbEntity
  8
Layer 1
 62
     1
370
     9
100
AcDbVertex
100
AcDb2dVertex
 10
347.8479881802612
 20
-71.75305277829993
 30
0.0
  0
VERTEX
  5
66
330
41
100
AcDbEntity
  8
Layer 1
 62
     1
370
     9
100
AcDbVertex
100
AcDb2dVertex
 10
355.8480113932475
 20
-71.75305277829993
 30
0.0
  0
SEQEND
  5
67
330
41
100
AcDbEntity
  8
Layer 1
 62
     1
370
     9
  0
POLYLINE
  5
68
330
1F
100
AcDbEntity
  8
Layer 1
 62
     1
370
     9
100
AcDb2dPolyline
 66
     1
 10
0.0
 20
0.0
 30
0.0
  0
VERTEX
  5
69
330
68
100
AcDbEntity
  8
Layer 1
 62
     1
370
     9
100
AcDbVertex
100
AcDb2dVertex
 10
250.6284050077267
 20
-71.75305277829993
 30
0.0
  0
VERTEX
  5
6A
330
68
100
AcDbEntity
  8
Layer 1
 62
     1
370
     9
100
AcDbVertex
100
AcDb2dVertex
 10
250.6284050077267
 20
-55.75304941599116
 30
0.0
  0
VERTEX
  5
6B
330
68
100
AcDbEntity
  8
Layer 1
 62
     1
370
     9
100
AcDbVertex
100
AcDb2dVertex
 10
234.6284016454189
 20
-55.75304941599116
 30
0.0
  0
VERTEX
  5
6C
330
68
100
AcDbEntity
  8
Layer 1
 62
     1
370
     9
100
AcDbVertex
100
AcDb2dVertex
 10
234.6284016454189
 20
-63.75307262897805
 30
0.0
  0
VERTEX
  5
6D
330
68
100
AcDbEntity
  8
Layer 1
 62
     1
370
     9
100
AcDbVertex
100
AcDb2dVertex
 10
211.9617553359534
 20
-63.75307262897805
 30
0.0
  0
VERTEX
  5
6E
330
68
100
AcDbEntity
  8
Layer 1
 62
     1
370
     9
100
AcDbVertex
100
AcDb2dVertex
 10
211.9617553359534
 20
-55.75304941599116
 30
0.0
  0
VERTEX
  5
6F
330
68
100
AcDbEntity
  8
Layer 1
 62
     1
370
     9
100
AcDbVertex
100
AcDb2dVertex
 10
189.2951090264885
 20
-55.75304941599116
 30
0.0
  0
VERTEX
  5
70
330
68
100
AcDbEntity
  8
Layer 1
 62
     1
370
     9
100
AcDbVertex
100
AcDb2dVertex
 10
189.2951090264885
 20
-63.75307262897805
 30
0.0
  0
VERTEX
  5
71
330
68
100
AcDbEntity
  8
Layer 1
 62
     1
370
     9
100
AcDbVertex
100
AcDb2dVertex
 10
166.628462717023
 20
-63.75307262897805
 30
0.0
  0
VERTEX
  5
72
330
68
100
AcDbEntity
  8
Layer 1
 62
     1
370
     9
100
AcDbVertex
100
AcDb2dVertex
 10
166.628462717023
 20
-55.75304941599116
 30
0.0
  0
VERTEX
  5
73
330
68
100
AcDbEntity
  8
Layer 1
 62
     1
370
     9
100
AcDbVertex
100
AcDb2dVertex
 10
150.6284593547152
 20
-55.75304941599116
 30
0.0
  0
VERTEX
  5
74
330
68
100
AcDbEntity
  8
Layer 1
 62
     1
370
     9
100
AcDbVertex
100
AcDb2dVertex
 10
150.6284593547152
 20
-71.75305277829993
 30
0.0
  0
VERTEX
  5
75
330
68
100
AcDbEntity
  8
Layer 1
 62
     1
370
     9
100
AcDbVertex
100
AcDb2dVertex
 10
158.6284825677021
 20
-71.75305277829993
 30
0.0
  0
VERTEX
  5
76
330
68
100
AcDbEntity
  8
Layer 1
 62
     1
370
     9
100
AcDbVertex
100
AcDb2dVertex
 10
158.6284825677021
 20
-94.41969908776514
 30
0.0
  0
VERTEX
  5
77
330
68
100
AcDbEntity
  8
Layer 1
 62
     1
370
     9
100
AcDbVertex
100
AcDb2dVertex
 10
150.6284593547152
 20
-94.41969908776514
 30
0.0
  0
VERTEX
  5
78
330
68
100
AcDbEntity
  8
Layer 1
 62
     1
370
     9
100
AcDbVertex
100
AcDb2dVertex
 10
150.6284593547152
 20
-117.0863453972304
 30
0.0
  0
VERTEX
  5
79
330
68
100
AcDbEntity
  8
Layer 1
 62
     1
370
     9
100
AcDbVertex
100
AcDb2dVertex
 10
158.6284825677021
 20
-117.0863453972304
 30
0.0
  0
VERTEX
  5
7A
330
68
100
AcDbEntity
  8
Layer 1
 62
     1
370
     9
100
AcDbVertex
100
AcDb2dVertex
 10
158.6284825677021
 20
-139.7529917066959
 30
0.0
  0
VERTEX
  5
7B
330
68
100
AcDbEntity
  8
Layer 1
 62
     1
370
     9
100
AcDbVertex
100
AcDb2dVertex
 10
150.6284593547152
 20
-139.7529917066959
 30
0.0
  0
VERTEX
  5
7C
330
68
100
AcDbEntity
  8
Layer 1
 62
     1
370
     9
100
AcDbVertex
100
AcDb2dVertex
 10
150.6284593547152
 20
-155.7529950690031
 30
0.0
  0
VERTEX
  5
7D
330
68
100
AcDbEntity
  8
Layer 1
 62
     1
370
     9
100
AcDbVertex
100
AcDb2dVertex
 10
166.628462717023
 20
-155.7529950690031
 30
0.0
  0
VERTEX
  5
7E
330
68
100
AcDbEntity
  8
Layer 1
 62
     1
370
     9
100
AcDbVertex
100
AcDb2dVertex
 10
166.628462717023
 20
-147.7529718560162
 30
0.0
  0
VERTEX
  5
7F
330
68
100
AcDbEntity
  8
Layer 1
 62
     1
370
     9
100
AcDbVertex
100
AcDb2dVertex
 10
189.2951090264885
 20
-147.7529718560162
 30
0.0
  0
VERTEX
  5
80
330
68
100
AcDbEntity
  8
Layer 1
 62
     1
370
     9
100
AcDbVertex
100
AcDb2dVertex
 10
189.2951090264885
 20
-155.7529950690031
 30
0.0
  0
VERTEX
  5
81
330
68
100
AcDbEntity
  8
Layer 1
 62
     1
370
     9
100
AcDbVertex
100
AcDb2dVertex
 10
211.9617553359534
 20
-155.7529950690031
 30
0.0
  0
VERTEX
  5
82
330
68
100
AcDbEntity
  8
Layer 1
 62
     1
370
     9
100
AcDbVertex
100
AcDb2dVertex
 10
211.9617553359534
 20
-147.7529718560162
 30
0.0
  0
VERTEX
  5
83
330
68
100
AcDbEntity
  8
Layer 1
 62
     1
370
     9
100
AcDbVertex
100
AcDb2dVertex
 10
234.6284016454189
 20
-147.7529718560162
 30
0.0
  0
VERTEX
  5
84
330
68
100
AcDbEntity
  8
Layer 1
 62
     1
370
     9
100
AcDbVertex
100
AcDb2dVertex
 10
234.6284016454189
 20
-155.7529950690031
 30
0.0
  0
VERTEX
  5
85
330
68
100
AcDbEntity
  8
Layer 1
 62
     1
370
     9
100
AcDbVertex
100
AcDb2dVertex
 10
250.6284050077267
 20
-155.7529950690031
 30
0.0
  0
VERTEX
  5
86
330
68
100
AcDbEntity
  8
Layer 1
 62
     1
370
     9
100
AcDbVertex
100
AcDb2dVertex
 10
250.6284050077267
 20
-139.7529917066959
 30
0.0
  0
VERTEX
  5
87
330
68
100
AcDbEntity
  8
Layer 1
 62
     1
370
     9
100
AcDbVertex
100
AcDb2dVertex
 10
242.6283817947405
 20
-139.7529917066959
 30
0.0
  0
VERTEX
  5
88
330
68
100
AcDbEntity
  8
Layer 1
 62
     1
370
     9
100
AcDbVertex
100
AcDb2dVertex
 10
242.6283817947405
 20
-117.0863453972304
 30
0.0
  0
VERTEX
  5
89
330
68
100
AcDbEntity
  8
Layer 1
 62
     1
370
     9
100
AcDbVertex
100
AcDb2dVertex
 10
250.6284050077267
 20
-117.0863453972304
 30
0.0
  0
VERTEX
  5
8A
330
68
100
AcDbEntity
  8
Layer 1
 62
     1
370
     9
100
AcDbVertex
100
AcDb2dVertex
 10
250.6284050077267
 20
-94.41969908776514
 30
0.0
  0
VERTEX
  5
8B
330
68
100
AcDbEntity
  8
Layer 1
 62
     1
370
     9
100
AcDbVertex
100
AcDb2dVertex
 10
242.6283817947405
 20
-94.41969908776514
 30
0.0
  0
VERTEX
  5
8C
330
68
100
AcDbEntity
  8
Layer 1
 62
     1
370
     9
100
AcDbVertex
100
AcDb2dVertex
 10
242.6283817947405
 20
-71.75305277829993
 30
0.0
  0
VERTEX
  5
8D
330
68
100
AcDbEntity
  8
Layer 1
 62
     1
370
     9
100
AcDbVertex
100
AcDb2dVertex
 10
250.6284050077267
 20
-71.75305277829993
 30
0.0
  0
SEQEND
  5
8E
330
68
100
AcDbEntity
  8
Layer 1
 62
     1
370
     9
  0
POLYLINE
  5
8F
330
1F
100
AcDbEntity
  8
Layer 1
 62
     1
370
     9
100
AcDb2dPolyline
 66
     1
 10
0.0
 20
0.0
 30
0.0
  0
VERTEX
  5
90
330
8F
100
AcDbEntity
  8
Layer 1
 62
     1
370
     9
100
AcDbVertex
100
AcDb2dVertex
 10
242.6283817947405
 20
-197.4940459272927
 30
0.0
  0
VERTEX
  5
91
330
8F
100
AcDbEntity
  8
Layer 1
 62
     1
370
     9
100
AcDbVertex
100
AcDb2dVertex
 10
250.6284050077267
 20
-197.4940459272927
 30
0.0
  0
VERTEX
  5
92
330
8F
100
AcDbEntity
  8
Layer 1
 62
     1
370
     9
100
AcDbVertex
100
AcDb2dVertex
 10
250.6283188803967
 20
-174.8273996178278
 30
0.0
  0
VERTEX
  5
93
330
8F
100
AcDbEntity
  8
Layer 1
 62
     1
370
     9
100
AcDbVertex
100
AcDb2dVertex
 10
242.6283817947405
 20
-174.8273996178278
 30
0.0
  0
VERTEX
  5
94
330
8F
100
AcDbEntity
  8
Layer 1
 62
     1
370
     9
100
AcDbVertex
100
AcDb2dVertex
 10
242.6283817947405
 20
-166.8273764048409
 30
0.0
  0
VERTEX
  5
95
330
8F
100
AcDbEntity
  8
Layer 1
 62
     1
370
     9
100
AcDbVertex
100
AcDb2dVertex
 10
219.9616493579449
 20
-166.8273764048409
 30
0.0
  0
VERTEX
  5
96
330
8F
100
AcDbEntity
  8
Layer 1
 62
     1
370
     9
100
AcDbVertex
100
AcDb2dVertex
 10
219.9616493579449
 20
-158.8273962555193
 30
0.0
  0
VERTEX
  5
97
330
8F
100
AcDbEntity
  8
Layer 1
 62
     1
370
     9
100
AcDbVertex
100
AcDb2dVertex
 10
207.0102520466934
 20
-158.8273962555193
 30
0.0
  0
VERTEX
  5
98
330
8F
100
AcDbEntity
  8
Layer 1
 62
     1
370
     9
100
AcDbVertex
100
AcDb2dVertex
 10
207.0102520466934
 20
-166.8273764048409
 30
0.0
  0
VERTEX
  5
99
330
8F
100
AcDbEntity
  8
Layer 1
 62
     1
370
     9
100
AcDbVertex
100
AcDb2dVertex
 10
194.1840838738665
 20
-166.8273764048409
 30
0.0
  0
VERTEX
  5
9A
330
8F
100
AcDbEntity
  8
Layer 1
 62
     1
370
     9
100
AcDbVertex
100
AcDb2dVertex
 10
194.1840838738665
 20
-158.8273962555193
 30
0.0
  0
VERTEX
  5
9B
330
8F
100
AcDbEntity
  8
Layer 1
 62
     1
370
     9
100
AcDbVertex
100
AcDb2dVertex
 10
181.2951288771669
 20
-158.8273962555193
 30
0.0
  0
VERTEX
  5
9C
330
8F
100
AcDbEntity
  8
Layer 1
 62
     1
370
     9
100
AcDbVertex
100
AcDb2dVertex
 10
181.2951288771669
 20
-166.8273764048409
 30
0.0
  0
VERTEX
  5
9D
330
8F
100
AcDbEntity
  8
Layer 1
 62
     1
370
     9
100
AcDbVertex
100
AcDb2dVertex
 10
158.6284825677021
 20
-166.8273764048409
 30
0.0
  0
VERTEX
  5
9E
330
8F
100
AcDbEntity
  8
Layer 1
 62
     1
370
     9
100
AcDbVertex
100
AcDb2dVertex
 10
158.6284825677021
 20
-174.8273996178278
 30
0.0
  0
VERTEX
  5
9F
330
8F
100
AcDbEntity
  8
Layer 1
 62
     1
370
     9
100
AcDbVertex
100
AcDb2dVertex
 10
150.6284593547152
 20
-174.8273996178278
 30
0.0
  0
VERTEX
  5
A0
330
8F
100
AcDbEntity
  8
Layer 1
 62
     1
370
     9
100
AcDbVertex
100
AcDb2dVertex
 10
150.6284593547152
 20
-197.4940459272927
 30
0.0
  0
VERTEX
  5
A1
330
8F
100
AcDbEntity
  8
Layer 1
 62
     1
370
     9
100
AcDbVertex
100
AcDb2dVertex
 10
158.6284825677021
 20
-197.4940459272927
 30
0.0
  0
VERTEX
  5
A2
330
8F
100
AcDbEntity
  8
Layer 1
 62
     1
370
     9
100
AcDbVertex
100
AcDb2dVertex
 10
158.6284825677021
 20
-220.1606922367582
 30
0.0
  0
VERTEX
  5
A3
330
8F
100
AcDbEntity
  8
Layer 1
 62
     1
370
     9
100
AcDbVertex
100
AcDb2dVertex
 10
150.6284593547152
 20
-220.1606922367582
 30
0.0
  0
VERTEX
  5
A4
330
8F
100
AcDbEntity
  8
Layer 1
 62
     1
370
     9
100
AcDbVertex
100
AcDb2dVertex
 10
150.6284593547152
 20
-242.8273385462238
 30
0.0
  0
VERTEX
  5
A5
330
8F
100
AcDbEntity
  8
Layer 1
 62
     1
370
     9
100
AcDbVertex
100
AcDb2dVertex
 10
158.6284825677021
 20
-242.8273385462238
 30
0.0
  0
VERTEX
  5
A6
330
8F
100
AcDbEntity
  8
Layer 1
 62
     1
370
     9
100
AcDbVertex
100
AcDb2dVertex
 10
158.6284825677021
 20
-250.82736175921
 30
0.0
  0
VERTEX
  5
A7
330
8F
100
AcDbEntity
  8
Layer 1
 62
     1
370
     9
100
AcDbVertex
100
AcDb2dVertex
 10
181.2951288771669
 20
-250.82736175921
 30
0.0
  0
VERTEX
  5
A8
330
8F
100
AcDbEntity
  8
Layer 1
 62
     1
370
     9
100
AcDbVertex
100
AcDb2dVertex
 10
181.2951288771669
 20
-258.8273419085316
 30
0.0
  0
VERTEX
  5
A9
330
8F
100
AcDbEntity
  8
Layer 1
 62
     1
370
     9
100
AcDbVertex
100
AcDb2dVertex
 10
194.1840838738665
 20
-258.8273419085316
 30
0.0
  0
VERTEX
  5
AA
330
8F
100
AcDbEntity
  8
Layer 1
 62
     1
370
     9
100
AcDbVertex
100
AcDb2dVertex
 10
194.1840838738665
 20
-250.82736175921
 30
0.0
  0
VERTEX
  5
AB
330
8F
100
AcDbEntity
  8
Layer 1
 62
     1
370
     9
100
AcDbVertex
100
AcDb2dVertex
 10
207.0102520466934
 20
-250.82736175921
 30
0.0
  0
VERTEX
  5
AC
330
8F
100
AcDbEntity
  8
Layer 1
 62
     1
370
     9
100
AcDbVertex
100
AcDb2dVertex
 10
207.0102520466934
 20
-258.8273419085316
 30
0.0
  0
VERTEX
  5
AD
330
8F
100
AcDbEntity
  8
Layer 1
 62
     1
370
     9
100
AcDbVertex
100
AcDb2dVertex
 10
219.9616493579449
 20
-258.8273419085316
 30
0.0
  0
VERTEX
  5
AE
330
8F
100
AcDbEntity
  8
Layer 1
 62
     1
370
     9
100
AcDbVertex
100
AcDb2dVertex
 10
219.9616493579449
 20
-250.82736175921
 30
0.0
  0
VERTEX
  5
AF
330
8F
100
AcDbEntity
  8
Layer 1
 62
     1
370
     9
100
AcDbVertex
100
AcDb2dVertex
 10
242.6283817947405
 20
-250.82736175921
 30
0.0
  0
VERTEX
  5
B0
330
8F
100
AcDbEntity
  8
Layer 1
 62
     1
370
     9
100
AcDbVertex
100
AcDb2dVertex
 10
242.6283817947405
 20
-242.8273385462238
 30
0.0
  0
VERTEX
  5
B1
330
8F
100
AcDbEntity
  8
Layer 1
 62
     1
370
     9
100
AcDbVertex
100
AcDb2dVertex
 10
250.6284050077267
 20
-242.8273385462238
 30
0.0
  0
VERTEX
  5
B2
330
8F
100
AcDbEntity
  8
Layer 1
 62
     1
370
     9
100
AcDbVertex
100
AcDb2dVertex
 10
250.6284050077267
 20
-220.1606922367582
 30
0.0
  0
VERTEX
  5
B3
330
8F
100
AcDbEntity
  8
Layer 1
 62
     1
370
     9
100
AcDbVertex
100
AcDb2dVertex
 10
242.6283817947405
 20
-220.1606922367582
 30
0.0
  0
VERTEX
  5
B4
330
8F
100
AcDbEntity
  8
Layer 1
 62
     1
370
     9
100
AcDbVertex
100
AcDb2dVertex
 10
242.6283817947405
 20
-197.4940459272927
 30
0.0
  0
SEQEND
  5
B5
330
8F
100
AcDbEntity
  8
Layer 1
 62
     1
370
     9
  0
POLYLINE
  5
B6
330
1F
100
AcDbEntity
  8
Layer 1
 62
     1
370
     9
100
AcDb2dPolyline
 66
     1
 10
0.0
 20
0.0
 30
0.0
  0
VERTEX
  5
B7
330
B6
100
AcDbEntity
  8
Layer 1
 62
     1
370
     9
100
AcDbVertex
100
AcDb2dVertex
 10
347.8479881802612
 20
-197.4940459272927
 30
0.0
  0
VERTEX
  5
B8
330
B6
100
AcDbEntity
  8
Layer 1
 62
     1
370
     9
100
AcDbVertex
100
AcDb2dVertex
 10
355.8480113932475
 20
-197.4940459272927
 30
0.0
  0
VERTEX
  5
B9
330
B6
100
AcDbEntity
  8
Layer 1
 62
     1
370
     9
100
AcDbVertex
100
AcDb2dVertex
 10
355.8479252659149
 20
-174.8273996178278
 30
0.0
  0
VERTEX
  5
BA
330
B6
100
AcDbEntity
  8
Layer 1
 62
     1
370
     9
100
AcDbVertex
100
AcDb2dVertex
 10
347.8479881802612
 20
-174.8273996178278
 30
0.0
  0
VERTEX
  5
BB
330
B6
100
AcDbEntity
  8
Layer 1
 62
     1
370
     9
100
AcDbVertex
100
AcDb2dVertex
 10
347.8479881802612
 20
-166.8273764048409
 30
0.0
  0
VERTEX
  5
BC
330
B6
100
AcDbEntity
  8
Layer 1
 62
     1
370
     9
100
AcDbVertex
100
AcDb2dVertex
 10
325.1812557434657
 20
-166.8273764048409
 30
0.0
  0
VERTEX
  5
BD
330
B6
100
AcDbEntity
  8
Layer 1
 62
     1
370
     9
100
AcDbVertex
100
AcDb2dVertex
 10
325.1812557434657
 20
-158.8273962555193
 30
0.0
  0
VERTEX
  5
BE
330
B6
100
AcDbEntity
  8
Layer 1
 62
     1
370
     9
100
AcDbVertex
100
AcDb2dVertex
 10
312.2298584322148
 20
-158.8273962555193
 30
0.0
  0
VERTEX
  5
BF
330
B6
100
AcDbEntity
  8
Layer 1
 62
     1
370
     9
100
AcDbVertex
100
AcDb2dVertex
 10
312.2298584322148
 20
-166.8273764048409
 30
0.0
  0
VERTEX
  5
C0
330
B6
100
AcDbEntity
  8
Layer 1
 62
     1
370
     9
100
AcDbVertex
100
AcDb2dVertex
 10
299.4036902593879
 20
-166.8273764048409
 30
0.0
  0
VERTEX
  5
C1
330
B6
100
AcDbEntity
  8
Layer 1
 62
     1
370
     9
100
AcDbVertex
100
AcDb2dVertex
 10
299.4036902593879
 20
-158.8273962555193
 30
0.0
  0
VERTEX
  5
C2
330
B6
100
AcDbEntity
  8
Layer 1
 62
     1
370
     9
100
AcDbVertex
100
AcDb2dVertex
 10
286.5147352626883
 20
-158.8273962555193
 30
0.0
  0
VERTEX
  5
C3
330
B6
100
AcDbEntity
  8
Layer 1
 62
     1
370
     9
100
AcDbVertex
100
AcDb2dVertex
 10
286.5147352626883
 20
-166.8273764048409
 30
0.0
  0
VERTEX
  5
C4
330
B6
100
AcDbEntity
  8
Layer 1
 62
     1
370
     9
100
AcDbVertex
100
AcDb2dVertex
 10
263.8480889532228
 20
-166.8273764048409
 30
0.0
  0
VERTEX
  5
C5
330
B6
100
AcDbEntity
  8
Layer 1
 62
     1
370
     9
100
AcDbVertex
100
AcDb2dVertex
 10
263.8480889532228
 20
-174.8273996178278
 30
0.0
  0
VERTEX
  5
C6
330
B6
100
AcDbEntity
  8
Layer 1
 62
     1
370
     9
100
AcDbVertex
100
AcDb2dVertex
 10
255.8480657402359
 20
-174.8273996178278
 30
0.0
  0
VERTEX
  5
C7
330
B6
100
AcDbEntity
  8
Layer 1
 62
     1
370
     9
100
AcDbVertex
100
AcDb2dVertex
 10
255.8480657402359
 20
-197.4940459272927
 30
0.0
  0
VERTEX
  5
C8
330
B6
100
AcDbEntity
  8
Layer 1
 62
     1
370
     9
100
AcDbVertex
100
AcDb2dVertex
 10
263.8480889532228
 20
-197.4940459272927
 30
0.0
  0
VERTEX
  5
C9
330
B6
100
AcDbEntity
  8
Layer 1
 62
     1
370
     9
100
AcDbVertex
100
AcDb2dVertex
 10
263.8480889532228
 20
-220.1606922367582
 30
0.0
  0
VERTEX
  5
CA
330
B6
100
AcDbEntity
  8
Layer 1
 62
     1
370
     9
100
AcDbVertex
100
AcDb2dVertex
 10
255.8480657402359
 20
-220.1606922367582
 30
0.0
  0
VERTEX
  5
CB
330
B6
100
AcDbEntity
  8
Layer 1
 62
     1
370
     9
100
AcDbVertex
100
AcDb2dVertex
 10
255.8480657402359
 20
-242.8273385462238
 30
0.0
  0
VERTEX
  5
CC
330
B6
100
AcDbEntity
  8
Layer 1
 62
     1
370
     9
100
AcDbVertex
100
AcDb2dVertex
 10
263.8480889532228
 20
-242.8273385462238
 30
0.0
  0
VERTEX
  5
CD
330
B6
100
AcDbEntity
  8
Layer 1
 62
     1
370
     9
100
AcDbVertex
100
AcDb2dVertex
 10
263.8480889532228
 20
-250.82736175921
 30
0.0
  0
VERTEX
  5
CE
330
B6
100
AcDbEntity
  8
Layer 1
 62
     1
370
     9
100
AcDbVertex
100
AcDb2dVertex
 10
286.5147352626883
 20
-250.82736175921
 30
0.0
  0
VERTEX
  5
CF
330
B6
100
AcDbEntity
  8
Layer 1
 62
     1
370
     9
100
AcDbVertex
100
AcDb2dVertex
 10
286.5147352626883
 20
-258.8273419085316
 30
0.0
  0
VERTEX
  5
D0
330
B6
100
AcDbEntity
  8
Layer 1
 62
     1
370
     9
100
AcDbVertex
100
AcDb2dVertex
 10
299.4036902593879
 20
-258.8273419085316
 30
0.0
  0
VERTEX
  5
D1
330
B6
100
AcDbEntity
  8
Layer 1
 62
     1
370
     9
100
AcDbVertex
100
AcDb2dVertex
 10
299.4036902593879
 20
-250.82736175921
 30
0.0
  0
VERTEX
  5
D2
330
B6
100
AcDbEntity
  8
Layer 1
 62
     1
370
     9
100
AcDbVertex
100
AcDb2dVertex
 10
312.2298584322148
 20
-250.82736175921
 30
0.0
  0
VERTEX
  5
D3
330
B6
100
AcDbEntity
  8
Layer 1
 62
     1
370
     9
100
AcDbVertex
100
AcDb2dVertex
 10
312.2298584322148
 20
-258.8273419085316
 30
0.0
  0
VERTEX
  5
D4
330
B6
100
AcDbEntity
  8
Layer 1
 62
     1
370
     9
100
AcDbVertex
100
AcDb2dVertex
 10
325.1812557434657
 20
-258.8273419085316
 30
0.0
  0
VERTEX
  5
D5
330
B6
100
AcDbEntity
  8
Layer 1
 62
     1
370
     9
100
AcDbVertex
100
AcDb2dVertex
 10
325.1812557434657
 20
-250.82736175921
 30
0.0
  0
VERTEX
  5
D6
330
B6
100
AcDbEntity
  8
Layer 1
 62
     1
370
     9
100
AcDbVertex
100
AcDb2dVertex
 10
347.8479881802612
 20
-250.82736175921
 30
0.0
  0
VERTEX
  5
D7
330
B6
100
AcDbEntity
  8
Layer 1
 62
     1
370
     9
100
AcDbVertex
100
AcDb2dVertex
 10
347.8479881802612
 20
-242.8273385462238
 30
0.0
  0
VERTEX
  5
D8
330
B6
100
AcDbEntity
  8
Layer 1
 62
     1
370
     9
100
AcDbVertex
100
AcDb2dVertex
 10
355.8480113932475
 20
-242.8273385462238
 30
0.0
  0
VERTEX
  5
D9
330
B6
100
AcDbEntity
  8
Layer 1
 62
     1
370
     9
100
AcDbVertex
100
AcDb2dVertex
 10
355.8480113932475
 20
-220.1606922367582
 30
0.0
  0
VERTEX
  5
DA
330
B6
100
AcDbEntity
  8
Layer 1
 62
     1
370
     9
100
AcDbVertex
100
AcDb2dVertex
 10
347.8479881802612
 20
-220.1606922367582
 30
0.0
  0
VERTEX
  5
DB
330
B6
100
AcDbEntity
  8
Layer 1
 62
     1
370
     9
100
AcDbVertex
100
AcDb2dVertex
 10
347.8479881802612
 20
-197.4940459272927
 30
0.0
  0
SEQEND
  5
DC
330
B6
100
AcDbEntity
  8
Layer 1
 62
     1
370
     9
  0
POLYLINE
  5
DD
330
1F
100
AcDbEntity
  8
Layer 1
 62
     1
370
     9
100
AcDb2dPolyline
 66
     1
 10
0.0
 20
0.0
 30
0.0
  0
VERTEX
  5
DE
330
DD
100
AcDbEntity
  8
Layer 1
 62
     1
370
     9
100
AcDbVertex
100
AcDb2dVertex
 10
146.0555287462969
 20
-71.75305277829993
 30
0.0
  0
VERTEX
  5
DF
330
DD
100
AcDbEntity
  8
Layer 1
 62
     1
370
     9
100
AcDbVertex
100
AcDb2dVertex
 10
146.0555287462969
 20
-55.75304941599116
 30
0.0
  0
VERTEX
  5
E0
330
DD
100
AcDbEntity
  8
Layer 1
 62
     1
370
     9
100
AcDbVertex
100
AcDb2dVertex
 10
130.055525383989
 20
-55.75304941599116
 30
0.0
  0
VERTEX
  5
E1
330
DD
100
AcDbEntity
  8
Layer 1
 62
     1
370
     9
100
AcDbVertex
100
AcDb2dVertex
 10
130.055525383989
 20
-63.75307262897805
 30
0.0
  0
VERTEX
  5
E2
330
DD
100
AcDbEntity
  8
Layer 1
 62
     1
370
     9
100
AcDbVertex
100
AcDb2dVertex
 10
107.3888790745235
 20
-63.75307262897805
 30
0.0
  0
VERTEX
  5
E3
330
DD
100
AcDbEntity
  8
Layer 1
 62
     1
370
     9
100
AcDbVertex
100
AcDb2dVertex
 10
107.3888790745235
 20
-55.75304941599116
 30
0.0
  0
VERTEX
  5
E4
330
DD
100
AcDbEntity
  8
Layer 1
 62
     1
370
     9
100
AcDbVertex
100
AcDb2dVertex
 10
84.72223276505893
 20
-55.75304941599116
 30
0.0
  0
VERTEX
  5
E5
330
DD
100
AcDbEntity
  8
Layer 1
 62
     1
370
     9
100
AcDbVertex
100
AcDb2dVertex
 10
84.72223276505893
 20
-63.75307262897805
 30
0.0
  0
VERTEX
  5
E6
330
DD
100
AcDbEntity
  8
Layer 1
 62
     1
370
     9
100
AcDbVertex
100
AcDb2dVertex
 10
62.05558645559308
 20
-63.75307262897805
 30
0.0
  0
VERTEX
  5
E7
330
DD
100
AcDbEntity
  8
Layer 1
 62
     1
370
     9
100
AcDbVertex
100
AcDb2dVertex
 10
62.05558645559308
 20
-55.75304941599116
 30
0.0
  0
VERTEX
  5
E8
330
DD
100
AcDbEntity
  8
Layer 1
 62
     1
370
     9
100
AcDbVertex
100
AcDb2dVertex
 10
46.05558309328527
 20
-55.75304941599116
 30
0.0
  0
VERTEX
  5
E9
330
DD
100
AcDbEntity
  8
Layer 1
 62
     1
370
     9
100
AcDbVertex
100
AcDb2dVertex
 10
46.05558309328527
 20
-71.75305277829993
 30
0.0
  0
VERTEX
  5
EA
330
DD
100
AcDbEntity
  8
Layer 1
 62
     1
370
     9
100
AcDbVertex
100
AcDb2dVertex
 10
54.05560630627152
 20
-71.75305277829993
 30
0.0
  0
VERTEX
  5
EB
330
DD
100
AcDbEntity
  8
Layer 1
 62
     1
370
     9
100
AcDbVertex
100
AcDb2dVertex
 10
54.05560630627152
 20
-94.41969908776514
 30
0.0
  0
VERTEX
  5
EC
330
DD
100
AcDbEntity
  8
Layer 1
 62
     1
370
     9
100
AcDbVertex
100
AcDb2dVertex
 10
46.05558309328527
 20
-94.41969908776514
 30
0.0
  0
VERTEX
  5
ED
330
DD
100
AcDbEntity
  8
Layer 1
 62
     1
370
     9
100
AcDbVertex
100
AcDb2dVertex
 10
46.05558309328527
 20
-117.0863453972304
 30
0.0
  0
VERTEX
  5
EE
330
DD
100
AcDbEntity
  8
Layer 1
 62
     1
370
     9
100
AcDbVertex
100
AcDb2dVertex
 10
54.05560630627152
 20
-117.0863453972304
 30
0.0
  0
VERTEX
  5
EF
330
DD
100
AcDbEntity
  8
Layer 1
 62
     1
370
     9
100
AcDbVertex
100
AcDb2dVertex
 10
54.05560630627152
 20
-139.7529917066959
 30
0.0
  0
VERTEX
  5
F0
330
DD
100
AcDbEntity
  8
Layer 1
 62
     1
370
     9
100
AcDbVertex
100
AcDb2dVertex
 10
46.05558309328527
 20
-139.7529917066959
 30
0.0
  0
VERTEX
  5
F1
330
DD
100
AcDbEntity
  8
Layer 1
 62
     1
370
     9
100
AcDbVertex
100
AcDb2dVertex
 10
46.05558309328527
 20
-155.7529950690031
 30
0.0
  0
VERTEX
  5
F2
330
DD
100
AcDbEntity
  8
Layer 1
 62
     1
370
     9
100
AcDbVertex
100
AcDb2dVertex
 10
62.05558645559308
 20
-155.7529950690031
 30
0.0
  0
VERTEX
  5
F3
330
DD
100
AcDbEntity
  8
Layer 1
 62
     1
370
     9
100
AcDbVertex
100
AcDb2dVertex
 10
62.05558645559308
 20
-147.7529718560162
 30
0.0
  0
VERTEX
  5
F4
330
DD
100
AcDbEntity
  8
Layer 1
 62
     1
370
     9
100
AcDbVertex
100
AcDb2dVertex
 10
84.72223276505893
 20
-147.7529718560162
 30
0.0
  0
VERTEX
  5
F5
330
DD
100
AcDbEntity
  8
Layer 1
 62
     1
370
     9
100
AcDbVertex
100
AcDb2dVertex
 10
84.72223276505893
 20
-155.7529950690031
 30
0.0
  0
VERTEX
  5
F6
330
DD
100
AcDbEntity
  8
Layer 1
 62
     1
370
     9
100
AcDbVertex
100
AcDb2dVertex
 10
107.3888790745235
 20
-155.7529950690031
 30
0.0
  0
VERTEX
  5
F7
330
DD
100
AcDbEntity
  8
Layer 1
 62
     1
370
     9
100
AcDbVertex
100
AcDb2dVertex
 10
107.3888790745235
 20
-147.7529718560162
 30
0.0
  0
VERTEX
  5
F8
330
DD
100
AcDbEntity
  8
Layer 1
 62
     1
370
     9
100
AcDbVertex
100
AcDb2dVertex
 10
130.055525383989
 20
-147.7529718560162
 30
0.0
  0
VERTEX
  5
F9
330
DD
100
AcDbEntity
  8
Layer 1
 62
     1
370
     9
100
AcDbVertex
100
AcDb2dVertex
 10
130.055525383989
 20
-155.7529950690031
 30
0.0
  0
VERTEX
  5
FA
330
DD
100
AcDbEntity
  8
Layer 1
 62
     1
370
     9
100
AcDbVertex
100
AcDb2dVertex
 10
146.0555287462969
 20
-155.7529950690031
 30
0.0
  0
VERTEX
  5
FB
330
DD
100
AcDbEntity
  8
Layer 1
 62
     1
370
     9
100
AcDbVertex
100
AcDb2dVertex
 10
146.0555287462969
 20
-139.7529917066959
 30
0.0
  0
VERTEX
  5
FC
330
DD
100
AcDbEntity
  8
Layer 1
 62
     1
370
     9
100
AcDbVertex
100
AcDb2dVertex
 10
138.05550553331
 20
-139.7529917066959
 30
0.0
  0
VERTEX
  5
FD
330
DD
100
AcDbEntity
  8
Layer 1
 62
     1
370
     9
100
AcDbVertex
100
AcDb2dVertex
 10
138.05550553331
 20
-117.0863453972304
 30
0.0
  0
VERTEX
  5
FE
330
DD
100
AcDbEntity
  8
Layer 1
 62
     1
370
     9
100
AcDbVertex
100
AcDb2dVertex
 10
146.0555287462969
 20
-117.0863453972304
 30
0.0
  0
VERTEX
  5
FF
330
DD
100
AcDbEntity
  8
Layer 1
 62
     1
370
     9
100
AcDbVertex
100
AcDb2dVertex
 10
146.0555287462969
 20
-94.41969908776514
 30
0.0
  0
VERTEX
  5
100
330
DD
100
AcDbEntity
  8
Layer 1
 62
     1
370
     9
100
AcDbVertex
100
AcDb2dVertex
 10
138.05550553331
 20
-94.41969908776514
 30
0.0
  0
VERTEX
  5
101
330
DD
100
AcDbEntity
  8
Layer 1
 62
     1
370
     9
100
AcDbVertex
100
AcDb2dVertex
 10
138.05550553331
 20
-71.75305277829993
 30
0.0
  0
VERTEX
  5
102
330
DD
100
AcDbEntity
  8
Layer 1
 62
     1
370
     9
100
AcDbVertex
100
AcDb2dVertex
 10
146.0555287462969
 20
-71.75305277829993
 30
0.0
  0
SEQEND
  5
103
330
DD
100
AcDbEntity
  8
Layer 1
 62
     1
370
     9
  0
POLYLINE
  5
104
330
1F
100
AcDbEntity
  8
Layer 1
 62
     1
370
     9
100
AcDb2dPolyline
 66
     1
 10
0.0
 20
0.0
 30
0.0
  0
VERTEX
  5
105
330
104
100
AcDbEntity
  8
Layer 1
 62
     1
370
     9
100
AcDbVertex
100
AcDb2dVertex
 10
40.83592236077612
 20
-71.75305277829993
 30
0.0
  0
VERTEX
  5
106
330
104
100
AcDbEntity
  8
Layer 1
 62
     1
370
     9
100
AcDbVertex
100
AcDb2dVertex
 10
40.83592236077612
 20
-55.75304941599116
 30
0.0
  0
VERTEX
  5
107
330
104
100
AcDbEntity
  8
Layer 1
 62
     1
370
     9
100
AcDbVertex
100
AcDb2dVertex
 10
24.83591899846767
 20
-55.75304941599116
 30
0.0
  0
VERTEX
  5
108
330
104
100
AcDbEntity
  8
Layer 1
 62
     1
370
     9
100
AcDbVertex
100
AcDb2dVertex
 10
24.83591899846767
 20
-63.75307262897805
 30
0.0
  0
VERTEX
  5
109
330
104
100
AcDbEntity
  8
Layer 1
 62
     1
370
     9
100
AcDbVertex
100
AcDb2dVertex
 10
2.169272689002778
 20
-63.75307262897805
 30
0.0
  0
VERTEX
  5
10A
330
104
100
AcDbEntity
  8
Layer 1
 62
     1
370
     9
100
AcDbVertex
100
AcDb2dVertex
 10
2.169272689002778
 20
-55.75304941599116
 30
0.0
  0
VERTEX
  5
10B
330
104
100
AcDbEntity
  8
Layer 1
 62
     1
370
     9
100
AcDbVertex
100
AcDb2dVertex
 10
-20.49737362046019
 20
-55.75304941599116
 30
0.0
  0
VERTEX
  5
10C
330
104
100
AcDbEntity
  8
Layer 1
 62
     1
370
     9
100
AcDbVertex
100
AcDb2dVertex
 10
-20.49737362046019
 20
-63.75307262897805
 30
0.0
  0
VERTEX
  5
10D
330
104
100
AcDbEntity
  8
Layer 1
 62
     1
370
     9
100
AcDbVertex
100
AcDb2dVertex
 10
-43.16401992992508
 20
-63.75307262897805
 30
0.0
  0
VERTEX
  5
10E
330
104
100
AcDbEntity
  8
Layer 1
 62
     1
370
     9
100
AcDbVertex
100
AcDb2dVertex
 10
-43.16401992992508
 20
-55.75304941599116
 30
0.0
  0
VERTEX
  5
10F
330
104
100
AcDbEntity
  8
Layer 1
 62
     1
370
     9
100
AcDbVertex
100
AcDb2dVertex
 10
-59.16402329223803
 20
-55.75304941599116
 30
0.0
  0
VERTEX
  5
110
330
104
100
AcDbEntity
  8
Layer 1
 62
     1
370
     9
100
AcDbVertex
100
AcDb2dVertex
 10
-59.16402329223803
 20
-71.75305277829993
 30
0.0
  0
VERTEX
  5
111
330
104
100
AcDbEntity
  8
Layer 1
 62
     1
370
     9
100
AcDbVertex
100
AcDb2dVertex
 10
-51.16400007924729
 20
-71.75305277829993
 30
0.0
  0
VERTEX
  5
112
330
104
100
AcDbEntity
  8
Layer 1
 62
     1
370
     9
100
AcDbVertex
100
AcDb2dVertex
 10
-51.16400007924729
 20
-94.41969908776514
 30
0.0
  0
VERTEX
  5
113
330
104
100
AcDbEntity
  8
Layer 1
 62
     1
370
     9
100
AcDbVertex
100
AcDb2dVertex
 10
-59.16402329223803
 20
-94.41969908776514
 30
0.0
  0
VERTEX
  5
114
330
104
100
AcDbEntity
  8
Layer 1
 62
     1
370
     9
100
AcDbVertex
100
AcDb2dVertex
 10
-59.16402329223803
 20
-117.0863453972304
 30
0.0
  0
VERTEX
  5
115
330
104
100
AcDbEntity
  8
Layer 1
 62
     1
370
     9
100
AcDbVertex
100
AcDb2dVertex
 10
-51.16400007924729
 20
-117.0863453972304
 30
0.0
  0
VERTEX
  5
116
330
104
100
AcDbEntity
  8
Layer 1
 62
     1
370
     9
100
AcDbVertex
100
AcDb2dVertex
 10
-51.16400007924729
 20
-139.7529917066959
 30
0.0
  0
VERTEX
  5
117
330
104
100
AcDbEntity
  8
Layer 1
 62
     1
370
     9
100
AcDbVertex
100
AcDb2dVertex
 10
-59.16402329223803
 20
-139.7529917066959
 30
0.0
  0
VERTEX
  5
118
330
104
100
AcDbEntity
  8
Layer 1
 62
     1
370
     9
100
AcDbVertex
100
AcDb2dVertex
 10
-59.16402329223803
 20
-155.7529950690031
 30
0.0
  0
VERTEX
  5
119
330
104
100
AcDbEntity
  8
Layer 1
 62
     1
370
     9
100
AcDbVertex
100
AcDb2dVertex
 10
-43.16401992992508
 20
-155.7529950690031
 30
0.0
  0
VERTEX
  5
11A
330
104
100
AcDbEntity
  8
Layer 1
 62
     1
370
     9
100
AcDbVertex
100
AcDb2dVertex
 10
-43.16401992992508
 20
-147.7529718560162
 30
0.0
  0
VERTEX
  5
11B
330
104
100
AcDbEntity
  8
Layer 1
 62
     1
370
     9
100
AcDbVertex
100
AcDb2dVertex
 10
-20.49737362046019
 20
-147.7529718560162
 30
0.0
  0
VERTEX
  5
11C
330
104
100
AcDbEntity
  8
Layer 1
 62
     1
370
     9
100
AcDbVertex
100
AcDb2dVertex
 10
-20.49737362046019
 20
-155.7529950690031
 30
0.0
  0
VERTEX
  5
11D
330
104
100
AcDbEntity
  8
Layer 1
 62
     1
370
     9
100
AcDbVertex
100
AcDb2dVertex
 10
2.169272689002778
 20
-155.7529950690031
 30
0.0
  0
VERTEX
  5
11E
330
104
100
AcDbEntity
  8
Layer 1
 62
     1
370
     9
100
AcDbVertex
100
AcDb2dVertex
 10
2.169272689002778
 20
-147.7529718560162
 30
0.0
  0
VERTEX
  5
11F
330
104
100
AcDbEntity
  8
Layer 1
 62
     1
370
     9
100
AcDbVertex
100
AcDb2dVertex
 10
24.83591899846767
 20
-147.7529718560162
 30
0.0
  0
VERTEX
  5
120
330
104
100
AcDbEntity
  8
Layer 1
 62
     1
370
     9
100
AcDbVertex
100
AcDb2dVertex
 10
24.83591899846767
 20
-155.7529950690031
 30
0.0
  0
VERTEX
  5
121
330
104
100
AcDbEntity
  8
Layer 1
 62
     1
370
     9
100
AcDbVertex
100
AcDb2dVertex
 10
40.83592236077612
 20
-155.7529950690031
 30
0.0
  0
VERTEX
  5
122
330
104
100
AcDbEntity
  8
Layer 1
 62
     1
370
     9
100
AcDbVertex
100
AcDb2dVertex
 10
40.83592236077612
 20
-139.7529917066959
 30
0.0
  0
VERTEX
  5
123
330
104
100
AcDbEntity
  8
Layer 1
 62
     1
370
     9
100
AcDbVertex
100
AcDb2dVertex
 10
32.83589914778923
 20
-139.7529917066959
 30
0.0
  0
VERTEX
  5
124
330
104
100
AcDbEntity
  8
Layer 1
 62
     1
370
     9
100
AcDbVertex
100
AcDb2dVertex
 10
32.83589914778923
 20
-117.0863453972304
 30
0.0
  0
VERTEX
  5
125
330
104
100
AcDbEntity
  8
Layer 1
 62
     1
370
     9
100
AcDbVertex
100
AcDb2dVertex
 10
40.83592236077612
 20
-117.0863453972304
 30
0.0
  0
VERTEX
  5
126
330
104
100
AcDbEntity
  8
Layer 1
 62
     1
370
     9
100
AcDbVertex
100
AcDb2dVertex
 10
40.83592236077612
 20
-94.41969908776514
 30
0.0
  0
VERTEX
  5
127
330
104
100
AcDbEntity
  8
Layer 1
 62
     1
370
     9
100
AcDbVertex
100
AcDb2dVertex
 10
32.83589914778923
 20
-94.41969908776514
 30
0.0
  0
VERTEX
  5
128
330
104
100
AcDbEntity
  8
Layer 1
 62
     1
370
     9
100
AcDbVertex
100
AcDb2dVertex
 10
32.83589914778923
 20
-71.75305277829993
 30
0.0
  0
VERTEX
  5
129
330
104
100
AcDbEntity
  8
Layer 1
 62
     1
370
     9
100
AcDbVertex
100
AcDb2dVertex
 10
40.83592236077612
 20
-71.75305277829993
 30
0.0
  0
SEQEND
  5
12A
330
104
100
AcDbEntity
  8
Layer 1
 62
     1
370
     9
  0
POLYLINE
  5
12B
330
1F
100
AcDbEntity
  8
Layer 1
 62
     1
370
     9
100
AcDb2dPolyline
 66
     1
 10
0.0
 20
0.0
 30
0.0
  0
VERTEX
  5
12C
330
12B
100
AcDbEntity
  8
Layer 1
 62
     1
370
     9
100
AcDbVertex
100
AcDb2dVertex
 10
32.83589914778923
 20
-197.4940459272927
 30
0.0
  0
VERTEX
  5
12D
330
12B
100
AcDbEntity
  8
Layer 1
 62
     1
370
     9
100
AcDbVertex
100
AcDb2dVertex
 10
40.83592236077612
 20
-197.4940459272927
 30
0.0
  0
VERTEX
  5
12E
330
12B
100
AcDbEntity
  8
Layer 1
 62
     1
370
     9
100
AcDbVertex
100
AcDb2dVertex
 10
40.83583623344546
 20
-174.8273996178278
 30
0.0
  0
VERTEX
  5
12F
330
12B
100
AcDbEntity
  8
Layer 1
 62
     1
370
     9
100
AcDbVertex
100
AcDb2dVertex
 10
32.83589914778923
 20
-174.8273996178278
 30
0.0
  0
VERTEX
  5
130
330
12B
100
AcDbEntity
  8
Layer 1
 62
     1
370
     9
100
AcDbVertex
100
AcDb2dVertex
 10
32.83589914778923
 20
-166.8273764048409
 30
0.0
  0
VERTEX
  5
131
330
12B
100
AcDbEntity
  8
Layer 1
 62
     1
370
     9
100
AcDbVertex
100
AcDb2dVertex
 10
10.16916671099368
 20
-166.8273764048409
 30
0.0
  0
VERTEX
  5
132
330
12B
100
AcDbEntity
  8
Layer 1
 62
     1
370
     9
100
AcDbVertex
100
AcDb2dVertex
 10
10.16916671099368
 20
-158.8273962555193
 30
0.0
  0
VERTEX
  5
133
330
12B
100
AcDbEntity
  8
Layer 1
 62
     1
370
     9
100
AcDbVertex
100
AcDb2dVertex
 10
-2.782230600257257
 20
-158.8273962555193
 30
0.0
  0
VERTEX
  5
134
330
12B
100
AcDbEntity
  8
Layer 1
 62
     1
370
     9
100
AcDbVertex
100
AcDb2dVertex
 10
-2.782230600257257
 20
-166.8273764048409
 30
0.0
  0
VERTEX
  5
135
330
12B
100
AcDbEntity
  8
Layer 1
 62
     1
370
     9
100
AcDbVertex
100
AcDb2dVertex
 10
-15.60839877308603
 20
-166.8273764048409
 30
0.0
  0
VERTEX
  5
136
330
12B
100
AcDbEntity
  8
Layer 1
 62
     1
370
     9
100
AcDbVertex
100
AcDb2dVertex
 10
-15.60839877308603
 20
-158.8273962555193
 30
0.0
  0
VERTEX
  5
137
330
12B
100
AcDbEntity
  8
Layer 1
 62
     1
370
     9
100
AcDbVertex
100
AcDb2dVertex
 10
-28.49735376978239
 20
-158.8273962555193
 30
0.0
  0
VERTEX
  5
138
330
12B
100
AcDbEntity
  8
Layer 1
 62
     1
370
     9
100
AcDbVertex
100
AcDb2dVertex
 10
-28.49735376978239
 20
-166.8273764048409
 30
0.0
  0
VERTEX
  5
139
330
12B
100
AcDbEntity
  8
Layer 1
 62
     1
370
     9
100
AcDbVertex
100
AcDb2dVertex
 10
-51.16400007924729
 20
-166.8273764048409
 30
0.0
  0
VERTEX
  5
13A
330
12B
100
AcDbEntity
  8
Layer 1
 62
     1
370
     9
100
AcDbVertex
100
AcDb2dVertex
 10
-51.16400007924729
 20
-174.8273996178278
 30
0.0
  0
VERTEX
  5
13B
330
12B
100
AcDbEntity
  8
Layer 1
 62
     1
370
     9
100
AcDbVertex
100
AcDb2dVertex
 10
-59.16402329223803
 20
-174.8273996178278
 30
0.0
  0
VERTEX
  5
13C
330
12B
100
AcDbEntity
  8
Layer 1
 62
     1
370
     9
100
AcDbVertex
100
AcDb2dVertex
 10
-59.16402329223803
 20
-197.4940459272927
 30
0.0
  0
VERTEX
  5
13D
330
12B
100
AcDbEntity
  8
Layer 1
 62
     1
370
     9
100
AcDbVertex
100
AcDb2dVertex
 10
-51.16400007924729
 20
-197.4940459272927
 30
0.0
  0
VERTEX
  5
13E
330
12B
100
AcDbEntity
  8
Layer 1
 62
     1
370
     9
100
AcDbVertex
100
AcDb2dVertex
 10
-51.16400007924729
 20
-220.1606922367582
 30
0.0
  0
VERTEX
  5
13F
330
12B
100
AcDbEntity
  8
Layer 1
 62
     1
370
     9
100
AcDbVertex
100
AcDb2dVertex
 10
-59.16402329223803
 20
-220.1606922367582
 30
0.0
  0
VERTEX
  5
140
330
12B
100
AcDbEntity
  8
Layer 1
 62
     1
370
     9
100
AcDbVertex
100
AcDb2dVertex
 10
-59.16402329223803
 20
-242.8273385462238
 30
0.0
  0
VERTEX
  5
141
330
12B
100
AcDbEntity
  8
Layer 1
 62
     1
370
     9
100
AcDbVertex
100
AcDb2dVertex
 10
-51.16400007924729
 20
-242.8273385462238
 30
0.0
  0
VERTEX
  5
142
330
12B
100
AcDbEntity
  8
Layer 1
 62
     1
370
     9
100
AcDbVertex
100
AcDb2dVertex
 10
-51.16400007924729
 20
-250.82736175921
 30
0.0
  0
VERTEX
  5
143
330
12B
100
AcDbEntity
  8
Layer 1
 62
     1
370
     9
100
AcDbVertex
100
AcDb2dVertex
 10
-28.49735376978239
 20
-250.82736175921
 30
0.0
  0
VERTEX
  5
144
330
12B
100
AcDbEntity
  8
Layer 1
 62
     1
370
     9
100
AcDbVertex
100
AcDb2dVertex
 10
-28.49735376978239
 20
-258.8273419085316
 30
0.0
  0
VERTEX
  5
145
330
12B
100
AcDbEntity
  8
Layer 1
 62
     1
370
     9
100
AcDbVertex
100
AcDb2dVertex
 10
-15.60839877308603
 20
-258.8273419085316
 30
0.0
  0
VERTEX
  5
146
330
12B
100
AcDbEntity
  8
Layer 1
 62
     1
370
     9
100
AcDbVertex
100
AcDb2dVertex
 10
-15.60839877308603
 20
-250.82736175921
 30
0.0
  0
VERTEX
  5
147
330
12B
100
AcDbEntity
  8
Layer 1
 62
     1
370
     9
100
AcDbVertex
100
AcDb2dVertex
 10
-2.782230600257257
 20
-250.82736175921
 30
0.0
  0
VERTEX
  5
148
330
12B
100
AcDbEntity
  8
Layer 1
 62
     1
370
     9
100
AcDbVertex
100
AcDb2dVertex
 10
-2.782230600257257
 20
-258.8273419085316
 30
0.0
  0
VERTEX
  5
149
330
12B
100
AcDbEntity
  8
Layer 1
 62
     1
370
     9
100
AcDbVertex
100
AcDb2dVertex
 10
10.16916671099368
 20
-258.8273419085316
 30
0.0
  0
VERTEX
  5
14A
330
12B
100
AcDbEntity
  8
Layer 1
 62
     1
370
     9
100
AcDbVertex
100
AcDb2dVertex
 10
10.16916671099368
 20
-250.82736175921
 30
0.0
  0
VERTEX
  5
14B
330
12B
100
AcDbEntity
  8
Layer 1
 62
     1
370
     9
100
AcDbVertex
100
AcDb2dVertex
 10
32.83589914778923
 20
-250.82736175921
 30
0.0
  0
VERTEX
  5
14C
330
12B
100
AcDbEntity
  8
Layer 1
 62
     1
370
     9
100
AcDbVertex
100
AcDb2dVertex
 10
32.83589914778923
 20
-242.8273385462238
 30
0.0
  0
VERTEX
  5
14D
330
12B
100
AcDbEntity
  8
Layer 1
 62
     1
370
     9
100
AcDbVertex
100
AcDb2dVertex
 10
40.83592236077612
 20
-242.8273385462238
 30
0.0
  0
VERTEX
  5
14E
330
12B
100
AcDbEntity
  8
Layer 1
 62
     1
370
     9
100
AcDbVertex
100
AcDb2dVertex
 10
40.83592236077612
 20
-220.1606922367582
 30
0.0
  0
VERTEX
  5
14F
330
12B
100
AcDbEntity
  8
Layer 1
 62
     1
370
     9
100
AcDbVertex
100
AcDb2dVertex
 10
32.83589914778923
 20
-220.1606922367582
 30
0.0
  0
VERTEX
  5
150
330
12B
100
AcDbEntity
  8
Layer 1
 62
     1
370
     9
100
AcDbVertex
100
AcDb2dVertex
 10
32.83589914778923
 20
-197.4940459272927
 30
0.0
  0
SEQEND
  5
151
330
12B
100
AcDbEntity
  8
Layer 1
 62
     1
370
     9
  0
POLYLINE
  5
152
330
1F
100
AcDbEntity
  8
Layer 1
 62
     1
370
     9
100
AcDb2dPolyline
 66
     1
 10
0.0
 20
0.0
 30
0.0
  0
VERTEX
  5
153
330
152
100
AcDbEntity
  8
Layer 1
 62
     1
370
     9
100
AcDbVertex
100
AcDb2dVertex
 10
138.05550553331
 20
-197.4940459272927
 30
0.0
  0
VERTEX
  5
154
330
152
100
AcDbEntity
  8
Layer 1
 62
     1
370
     9
100
AcDbVertex
100
AcDb2dVertex
 10
146.0555287462969
 20
-197.4940459272927
 30
0.0
  0
VERTEX
  5
155
330
152
100
AcDbEntity
  8
Layer 1
 62
     1
370
     9
100
AcDbVertex
100
AcDb2dVertex
 10
146.0554426189662
 20
-174.8273996178278
 30
0.0
  0
VERTEX
  5
156
330
152
100
AcDbEntity
  8
Layer 1
 62
     1
370
     9
100
AcDbVertex
100
AcDb2dVertex
 10
138.05550553331
 20
-174.8273996178278
 30
0.0
  0
VERTEX
  5
157
330
152
100
AcDbEntity
  8
Layer 1
 62
     1
370
     9
100
AcDbVertex
100
AcDb2dVertex
 10
138.05550553331
 20
-166.8273764048409
 30
0.0
  0
VERTEX
  5
158
330
152
100
AcDbEntity
  8
Layer 1
 62
     1
370
     9
100
AcDbVertex
100
AcDb2dVertex
 10
115.3887730965144
 20
-166.8273764048409
 30
0.0
  0
VERTEX
  5
159
330
152
100
AcDbEntity
  8
Layer 1
 62
     1
370
     9
100
AcDbVertex
100
AcDb2dVertex
 10
115.3887730965144
 20
-158.8273962555193
 30
0.0
  0
VERTEX
  5
15A
330
152
100
AcDbEntity
  8
Layer 1
 62
     1
370
     9
100
AcDbVertex
100
AcDb2dVertex
 10
102.4373757852635
 20
-158.8273962555193
 30
0.0
  0
VERTEX
  5
15B
330
152
100
AcDbEntity
  8
Layer 1
 62
     1
370
     9
100
AcDbVertex
100
AcDb2dVertex
 10
102.4373757852635
 20
-166.8273764048409
 30
0.0
  0
VERTEX
  5
15C
330
152
100
AcDbEntity
  8
Layer 1
 62
     1
370
     9
100
AcDbVertex
100
AcDb2dVertex
 10
89.61120761243694
 20
-166.8273764048409
 30
0.0
  0
VERTEX
  5
15D
330
152
100
AcDbEntity
  8
Layer 1
 62
     1
370
     9
100
AcDbVertex
100
AcDb2dVertex
 10
89.61120761243694
 20
-158.8273962555193
 30
0.0
  0
VERTEX
  5
15E
330
152
100
AcDbEntity
  8
Layer 1
 62
     1
370
     9
100
AcDbVertex
100
AcDb2dVertex
 10
76.72225261573706
 20
-158.8273962555193
 30
0.0
  0
VERTEX
  5
15F
330
152
100
AcDbEntity
  8
Layer 1
 62
     1
370
     9
100
AcDbVertex
100
AcDb2dVertex
 10
76.72225261573706
 20
-166.8273764048409
 30
0.0
  0
VERTEX
  5
160
330
152
100
AcDbEntity
  8
Layer 1
 62
     1
370
     9
100
AcDbVertex
100
AcDb2dVertex
 10
54.05560630627152
 20
-166.8273764048409
 30
0.0
  0
VERTEX
  5
161
330
152
100
AcDbEntity
  8
Layer 1
 62
     1
370
     9
100
AcDbVertex
100
AcDb2dVertex
 10
54.05560630627152
 20
-174.8273996178278
 30
0.0
  0
VERTEX
  5
162
330
152
100
AcDbEntity
  8
Layer 1
 62
     1
370
     9
100
AcDbVertex
100
AcDb2dVertex
 10
46.05558309328527
 20
-174.8273996178278
 30
0.0
  0
VERTEX
  5
163
330
152
100
AcDbEntity
  8
Layer 1
 62
     1
370
     9
100
AcDbVertex
100
AcDb2dVertex
 10
46.05558309328527
 20
-197.4940459272927
 30
0.0
  0
VERTEX
  5
164
330
152
100
AcDbEntity
  8
Layer 1
 62
     1
370
     9
100
AcDbVertex
100
AcDb2dVertex
 10
54.05560630627152
 20
-197.4940459272927
 30
0.0
  0
VERTEX
  5
165
330
152
100
AcDbEntity
  8
Layer 1
 62
     1
370
     9
100
AcDbVertex
100
AcDb2dVertex
 10
54.05560630627152
 20
-220.1606922367582
 30
0.0
  0
VERTEX
  5
166
330
152
100
AcDbEntity
  8
Layer 1
 62
     1
370
     9
100
AcDbVertex
100
AcDb2dVertex
 10
46.05558309328527
 20
-220.1606922367582
 30
0.0
  0
VERTEX
  5
167
330
152
100
AcDbEntity
  8
Layer 1
 62
     1
370
     9
100
AcDbVertex
100
AcDb2dVertex
 10
46.05558309328527
 20
-242.8273385462238
 30
0.0
  0
VERTEX
  5
168
330
152
100
AcDbEntity
  8
Layer 1
 62
     1
370
     9
100
AcDbVertex
100
AcDb2dVertex
 10
54.05560630627152
 20
-242.8273385462238
 30
0.0
  0
VERTEX
  5
169
330
152
100
AcDbEntity
  8
Layer 1
 62
     1
370
     9
100
AcDbVertex
100
AcDb2dVertex
 10
54.05560630627152
 20
-250.82736175921
 30
0.0
  0
VERTEX
  5
16A
330
152
100
AcDbEntity
  8
Layer 1
 62
     1
370
     9
100
AcDbVertex
100
AcDb2dVertex
 10
76.72225261573706
 20
-250.82736175921
 30
0.0
  0
VERTEX
  5
16B
330
152
100
AcDbEntity
  8
Layer 1
 62
     1
370
     9
100
AcDbVertex
100
AcDb2dVertex
 10
76.72225261573706
 20
-258.8273419085316
 30
0.0
  0
VERTEX
  5
16C
330
152
100
AcDbEntity
  8
Layer 1
 62
     1
370
     9
100
AcDbVertex
100
AcDb2dVertex
 10
89.61120761243694
 20
-258.8273419085316
 30
0.0
  0
VERTEX
  5
16D
330
152
100
AcDbEntity
  8
Layer 1
 62
     1
370
     9
100
AcDbVertex
100
AcDb2dVertex
 10
89.61120761243694
 20
-250.82736175921
 30
0.0
  0
VERTEX
  5
16E
330
152
100
AcDbEntity
  8
Layer 1
 62
     1
370
     9
100
AcDbVertex
100
AcDb2dVertex
 10
102.4373757852635
 20
-250.82736175921
 30
0.0
  0
VERTEX
  5
16F
330
152
100
AcDbEntity
  8
Layer 1
 62
     1
370
     9
100
AcDbVertex
100
AcDb2dVertex
 10
102.4373757852635
 20
-258.8273419085316
 30
0.0
  0
VERTEX
  5
170
330
152
100
AcDbEntity
  8
Layer 1
 62
     1
370
     9
100
AcDbVertex
100
AcDb2dVertex
 10
115.3887730965144
 20
-258.8273419085316
 30
0.0
  0
VERTEX
  5
171
330
152
100
AcDbEntity
  8
Layer 1
 62
     1
370
     9
100
AcDbVertex
100
AcDb2dVertex
 10
115.3887730965144
 20
-250.82736175921
 30
0.0
  0
VERTEX
  5
172
330
152
100
AcDbEntity
  8
Layer 1
 62
     1
370
     9
100
AcDbVertex
100
AcDb2dVertex
 10
138.05550553331
 20
-250.82736175921
 30
0.0
  0
VERTEX
  5
173
330
152
100
AcDbEntity
  8
Layer 1
 62
     1
370
     9
100
AcDbVertex
100
AcDb2dVertex
 10
138.05550553331
 20
-242.8273385462238
 30
0.0
  0
VERTEX
  5
174
330
152
100
AcDbEntity
  8
Layer 1
 62
     1
370
     9
100
AcDbVertex
100
AcDb2dVertex
 10
146.0555287462969
 20
-242.8273385462238
 30
0.0
  0
VERTEX
  5
175
330
152
100
AcDbEntity
  8
Layer 1
 62
     1
370
     9
100
AcDbVertex
100
AcDb2dVertex
 10
146.0555287462969
 20
-220.1606922367582
 30
0.0
  0
VERTEX
  5
176
330
152
100
AcDbEntity
  8
Layer 1
 62
     1
370
     9
100
AcDbVertex
100
AcDb2dVertex
 10
138.05550553331
 20
-220.1606922367582
 30
0.0
  0
VERTEX
  5
177
330
152
100
AcDbEntity
  8
Layer 1
 62
     1
370
     9
100
AcDbVertex
100
AcDb2dVertex
 10
138.05550553331
 20
-197.4940459272927
 30
0.0
  0
SEQEND
  5
178
330
152
100
AcDbEntity
  8
Layer 1
 62
     1
370
     9
  0
POLYLINE
  5
179
330
1F
100
AcDbEntity
  8
Layer 1
 62
     1
370
     9
100
AcDb2dPolyline
 66
     1
 10
0.0
 20
0.0
 30
0.0
  0
VERTEX
  5
17A
330
179
100
AcDbEntity
  8
Layer 1
 62
     1
370
     9
100
AcDbVertex
100
AcDb2dVertex
 10
340.1990488958864
 20
-50.96752289613529
 30
0.0
  0
VERTEX
  5
17B
330
179
100
AcDbEntity
  8
Layer 1
 62
     1
370
     9
100
AcDbVertex
100
AcDb2dVertex
 10
356.1990522581961
 20
-50.96752289541627
 30
0.0
  0
VERTEX
  5
17C
330
179
100
AcDbEntity
  8
Layer 1
 62
     1
370
     9
100
AcDbVertex
100
AcDb2dVertex
 10
356.1990522574768
 20
-34.96751953310877
 30
0.0
  0
VERTEX
  5
17D
330
179
100
AcDbEntity
  8
Layer 1
 62
     1
370
     9
100
AcDbVertex
100
AcDb2dVertex
 10
348.1990290444892
 20
-34.96751953346812
 30
0.0
  0
VERTEX
  5
17E
330
179
100
AcDbEntity
  8
Layer 1
 62
     1
370
     9
100
AcDbVertex
100
AcDb2dVertex
 10
348.1990290434728
 20
-12.30087322400259
 30
0.0
  0
VERTEX
  5
17F
330
179
100
AcDbEntity
  8
Layer 1
 62
     1
370
     9
100
AcDbVertex
100
AcDb2dVertex
 10
356.199052256461
 20
-12.30087322364324
 30
0.0
  0
VERTEX
  5
180
330
179
100
AcDbEntity
  8
Layer 1
 62
     1
370
     9
100
AcDbVertex
100
AcDb2dVertex
 10
356.1990522554413
 20
10.36577308582166
 30
0.0
  0
VERTEX
  5
181
330
179
100
AcDbEntity
  8
Layer 1
 62
     1
370
     9
100
AcDbVertex
100
AcDb2dVertex
 10
348.1990290424537
 20
10.3657730854623
 30
0.0
  0
VERTEX
  5
182
330
179
100
AcDbEntity
  8
Layer 1
 62
     1
370
     9
100
AcDbVertex
100
AcDb2dVertex
 10
348.1990290414373
 20
33.0324193949272
 30
0.0
  0
VERTEX
  5
183
330
179
100
AcDbEntity
  8
Layer 1
 62
     1
370
     9
100
AcDbVertex
100
AcDb2dVertex
 10
356.1990522544255
 20
33.03241939528655
 30
0.0
  0
VERTEX
  5
184
330
179
100
AcDbEntity
  8
Layer 1
 62
     1
370
     9
100
AcDbVertex
100
AcDb2dVertex
 10
356.1990522537055
 20
49.03242275759501
 30
0.0
  0
VERTEX
  5
185
330
179
100
AcDbEntity
  8
Layer 1
 62
     1
370
     9
100
AcDbVertex
100
AcDb2dVertex
 10
340.1990488913971
 20
49.0324227568763
 30
0.0
  0
VERTEX
  5
186
330
179
100
AcDbEntity
  8
Layer 1
 62
     1
370
     9
100
AcDbVertex
100
AcDb2dVertex
 10
340.1990488917564
 20
41.03239954388941
 30
0.0
  0
VERTEX
  5
187
330
179
100
AcDbEntity
  8
Layer 1
 62
     1
370
     9
100
AcDbVertex
100
AcDb2dVertex
 10
317.5324025822915
 20
41.03239954287167
 30
0.0
  0
VERTEX
  5
188
330
179
100
AcDbEntity
  8
Layer 1
 62
     1
370
     9
100
AcDbVertex
100
AcDb2dVertex
 10
317.5324025819322
 20
49.03242275585857
 30
0.0
  0
VERTEX
  5
189
330
179
100
AcDbEntity
  8
Layer 1
 62
     1
370
     9
100
AcDbVertex
100
AcDb2dVertex
 10
294.8657562724673
 20
49.03242275484083
 30
0.0
  0
VERTEX
  5
18A
330
179
100
AcDbEntity
  8
Layer 1
 62
     1
370
     9
100
AcDbVertex
100
AcDb2dVertex
 10
294.8657562728266
 20
41.03239954185394
 30
0.0
  0
VERTEX
  5
18B
330
179
100
AcDbEntity
  8
Layer 1
 62
     1
370
     9
100
AcDbVertex
100
AcDb2dVertex
 10
272.1991099633611
 20
41.0323995408362
 30
0.0
  0
VERTEX
  5
18C
330
179
100
AcDbEntity
  8
Layer 1
 62
     1
370
     9
100
AcDbVertex
100
AcDb2dVertex
 10
272.1991099630017
 20
49.0324227538231
 30
0.0
  0
VERTEX
  5
18D
330
179
100
AcDbEntity
  8
Layer 1
 62
     1
370
     9
100
AcDbVertex
100
AcDb2dVertex
 10
256.1991066006939
 20
49.03242275310439
 30
0.0
  0
VERTEX
  5
18E
330
179
100
AcDbEntity
  8
Layer 1
 62
     1
370
     9
100
AcDbVertex
100
AcDb2dVertex
 10
256.1991066014126
 20
33.03241939079594
 30
0.0
  0
VERTEX
  5
18F
330
179
100
AcDbEntity
  8
Layer 1
 62
     1
370
     9
100
AcDbVertex
100
AcDb2dVertex
 10
264.1991298143989
 20
33.03241939115529
 30
0.0
  0
VERTEX
  5
190
330
179
100
AcDbEntity
  8
Layer 1
 62
     1
370
     9
100
AcDbVertex
100
AcDb2dVertex
 10
264.1991298154153
 20
10.3657730816904
 30
0.0
  0
VERTEX
  5
191
330
179
100
AcDbEntity
  8
Layer 1
 62
     1
370
     9
100
AcDbVertex
100
AcDb2dVertex
 10
256.1991066024291
 20
10.36577308133105
 30
0.0
  0
VERTEX
  5
192
330
179
100
AcDbEntity
  8
Layer 1
 62
     1
370
     9
100
AcDbVertex
100
AcDb2dVertex
 10
256.1991066034481
 20
-12.30087322813385
 30
0.0
  0
VERTEX
  5
193
330
179
100
AcDbEntity
  8
Layer 1
 62
     1
370
     9
100
AcDbVertex
100
AcDb2dVertex
 10
264.1991298164343
 20
-12.3008732277745
 30
0.0
  0
VERTEX
  5
194
330
179
100
AcDbEntity
  8
Layer 1
 62
     1
370
     9
100
AcDbVertex
100
AcDb2dVertex
 10
264.1991298174508
 20
-34.96751953724003
 30
0.0
  0
VERTEX
  5
195
330
179
100
AcDbEntity
  8
Layer 1
 62
     1
370
     9
100
AcDbVertex
100
AcDb2dVertex
 10
256.1991066044645
 20
-34.96751953759938
 30
0.0
  0
VERTEX
  5
196
330
179
100
AcDbEntity
  8
Layer 1
 62
     1
370
     9
100
AcDbVertex
100
AcDb2dVertex
 10
256.1991066051833
 20
-50.96752289990719
 30
0.0
  0
VERTEX
  5
197
330
179
100
AcDbEntity
  8
Layer 1
 62
     1
370
     9
100
AcDbVertex
100
AcDb2dVertex
 10
272.199109967491
 20
-50.96752289918881
 30
0.0
  0
VERTEX
  5
198
330
179
100
AcDbEntity
  8
Layer 1
 62
     1
370
     9
100
AcDbVertex
100
AcDb2dVertex
 10
272.1991099671317
 20
-42.96749968620256
 30
0.0
  0
VERTEX
  5
199
330
179
100
AcDbEntity
  8
Layer 1
 62
     1
370
     9
100
AcDbVertex
100
AcDb2dVertex
 10
294.8657562765972
 20
-42.96749968518451
 30
0.0
  0
VERTEX
  5
19A
330
179
100
AcDbEntity
  8
Layer 1
 62
     1
370
     9
100
AcDbVertex
100
AcDb2dVertex
 10
294.8657562769566
 20
-50.96752289817076
 30
0.0
  0
VERTEX
  5
19B
330
179
100
AcDbEntity
  8
Layer 1
 62
     1
370
     9
100
AcDbVertex
100
AcDb2dVertex
 10
317.5324025864215
 20
-50.96752289715302
 30
0.0
  0
VERTEX
  5
19C
330
179
100
AcDbEntity
  8
Layer 1
 62
     1
370
     9
100
AcDbVertex
100
AcDb2dVertex
 10
317.5324025860621
 20
-42.96749968416677
 30
0.0
  0
VERTEX
  5
19D
330
179
100
AcDbEntity
  8
Layer 1
 62
     1
370
     9
100
AcDbVertex
100
AcDb2dVertex
 10
340.199048895527
 20
-42.96749968314904
 30
0.0
  0
VERTEX
  5
19E
330
179
100
AcDbEntity
  8
Layer 1
 62
     1
370
     9
100
AcDbVertex
100
AcDb2dVertex
 10
340.1990488958864
 20
-50.96752289613529
 30
0.0
  0
SEQEND
  5
19F
330
179
100
AcDbEntity
  8
Layer 1
 62
     1
370
     9
  0
ENDSEC
  0
SECTION
  2
OBJECTS
  0
DICTIONARY
  5
C
330
0
100
AcDbDictionary
281
     1
  3
ACAD_GROUP
350
D
  3
ACAD_LAYOUT
350
1A
  3
ACAD_MATERIAL
350
3B
  3
ACAD_MLEADERSTYLE
350
1C7
  3
ACAD_MLINESTYLE
350
17
  3
ACAD_PLOTSETTINGS
350
19
  3
ACAD_PLOTSTYLENAME
350
E
  3
ACAD_TABLESTYLE
350
1C6
  3
ACAD_VISUALSTYLE
350
2A
  0
DICTIONARY
  5
D
102
{ACAD_REACTORS
330
C
102
}
330
C
100
AcDbDictionary
281
     1
  0
DICTIONARY
  5
1A
102
{ACAD_REACTORS
330
C
102
}
330
C
100
AcDbDictionary
281
     1
  3
Layout1
350
1E
  3
Layout2
350
26
  3
Model
350
22
  0
DICTIONARY
  5
3B
102
{ACAD_REACTORS
330
C
102
}
330
C
100
AcDbDictionary
281
     1
  3
ByBlock
350
3D
  3
ByLayer
350
3C
  3
Global
350
3E
  0
DICTIONARY
  5
1C7
102
{ACAD_REACTORS
330
C
102
}
330
C
100
AcDbDictionary
281
     1
  0
DICTIONARY
  5
17
102
{ACAD_REACTORS
330
C
102
}
330
C
100
AcDbDictionary
281
     1
  3
Standard
350
18
  0
DICTIONARY
  5
19
102
{ACAD_REACTORS
330
C
102
}
330
C
100
AcDbDictionary
281
     1
  0
ACDBDICTIONARYWDFLT
  5
E
102
{ACAD_REACTORS
330
C
102
}
330
C
100
AcDbDictionary
281
     1
  3
Normal
350
F
100
AcDbDictionaryWithDefault
340
F
  0
DICTIONARY
  5
1C6
102
{ACAD_REACTORS
330
C
102
}
330
C
100
AcDbDictionary
281
     1
  0
DICTIONARY
  5
2A
102
{ACAD_REACTORS
330
C
102
}
330
C
100
AcDbDictionary
281
     1
  3
2dWireframe
350
2F
  3
3D Hidden
350
31
  3
3dWireframe
350
30
  3
Basic
350
32
  3
Brighten
350
36
  3
ColorChange
350
3A
  3
Conceptual
350
34
  3
Dim
350
35
  3
Facepattern
350
39
  3
Flat
350
2B
  3
FlatWithEdges
350
2C
  3
Gouraud
350
2D
  3
GouraudWithEdges
350
2E
  3
Linepattern
350
38
  3
Realistic
350
33
  3
Thicken
350
37
  0
LAYOUT
  5
1E
102
{ACAD_REACTORS
330
1A
102
}
330
1A
100
AcDbPlotSettings
  1

  2
none_device
  4

  6

 40
0.0
 41
0.0
 42
0.0
 43
0.0
 44
0.0
 45
0.0
 46
0.0
 47
0.0
 48
0.0
 49
0.0
140
0.0
141
0.0
142
1.0
143
1.0
 70
   688
 72
     0
 73
     0
 74
     5
  7

 75
    16
 76
     0
 77
     2
 78
   300
147
1.0
148
0.0
149
0.0
100
AcDbLayout
  1
Layout1
 70
     1
 71
     1
 10
0.0
 20
0.0
 11
12.0
 21
9.0
 12
0.0
 22
0.0
 32
0.0
 14
1.000000000000000E+20
 24
1.000000000000000E+20
 34
1.000000000000000E+20
 15
-1.000000000000000E+20
 25
-1.000000000000000E+20
 35
-1.000000000000000E+20
146
0.0
 13
0.0
 23
0.0
 33
0.0
 16
1.0
 26
0.0
 36
0.0
 17
0.0
 27
1.0
 37
0.0
 76
     0
330
1B
  0
LAYOUT
  5
26
102
{ACAD_REACTORS
330
1A
102
}
330
1A
100
AcDbPlotSettings
  1

  2
none_device
  4

  6

 40
0.0
 41
0.0
 42
0.0
 43
0.0
 44
0.0
 45
0.0
 46
0.0
 47
0.0
 48
0.0
 49
0.0
140
0.0
141
0.0
142
1.0
143
1.0
 70
   688
 72
     0
 73
     0
 74
     5
  7

 75
    16
 76
     0
 77
     2
 78
   300
147
1.0
148
0.0
149
0.0
100
AcDbLayout
  1
Layout2
 70
     1
 71
     2
 10
0.0
 20
0.0
 11
0.0
 21
0.0
 12
0.0
 22
0.0
 32
0.0
 14
0.0
 24
0.0
 34
0.0
 15
0.0
 25
0.0
 35
0.0
146
0.0
 13
0.0
 23
0.0
 33
0.0
 16
1.0
 26
0.0
 36
0.0
 17
0.0
 27
1.0
 37
0.0
 76
     0
330
23
  0
LAYOUT
  5
22
102
{ACAD_REACTORS
330
1A
102
}
330
1A
100
AcDbPlotSettings
  1

  2
none_device
  4

  6

 40
0.0
 41
0.0
 42
0.0
 43
0.0
 44
0.0
 45
0.0
 46
0.0
 47
0.0
 48
0.0
 49
0.0
140
0.0
141
0.0
142
1.0
143
1.0
 70
  1712
 72
     0
 73
     0
 74
     0
  7

 75
     0
 76
     0
 77
     2
 78
   300
147
1.0
148
0.0
149
0.0
100
AcDbLayout
  1
Model
 70
     1
 71
     0
 10
0.0
 20
0.0
 11
12.0
 21
9.0
 12
0.0
 22
0.0
 32
0.0
 14
1.000000000000000E+20
 24
1.000000000000000E+20
 34
1.000000000000000E+20
 15
-1.000000000000000E+20
 25
-1.000000000000000E+20
 35
-1.000000000000000E+20
146
0.0
 13
0.0
 23
0.0
 33
0.0
 16
1.0
 26
0.0
 36
0.0
 17
0.0
 27
1.0
 37
0.0
 76
     0
330
1F
331
29
  0
MATERIAL
  5
3D
102
{ACAD_REACTORS
330
3B
102
}
102
{ACAD_XDICTIONARY
360
1C2
102
}
330
3B
100
AcDbMaterial
  1
ByBlock
  0
MATERIAL
  5
3C
102
{ACAD_REACTORS
330
3B
102
}
102
{ACAD_XDICTIONARY
360
1C0
102
}
330
3B
100
AcDbMaterial
  1
ByLayer
  0
MATERIAL
  5
3E
102
{ACAD_REACTORS
330
3B
102
}
102
{ACAD_XDICTIONARY
360
1C4
102
}
330
3B
100
AcDbMaterial
  1
Global
  0
MLINESTYLE
  5
18
102
{ACAD_REACTORS
330
17
102
}
330
17
100
AcDbMlineStyle
  2
Standard
 70
     0
  3

 62
   256
 51
90.0
 52
90.0
 71
     2
 49
0.5
 62
   256
  6
BYLAYER
 49
-0.5
 62
   256
  6
BYLAYER
  0
ACDBPLACEHOLDER
  5
F
102
{ACAD_REACTORS
330
E
102
}
330
E
  0
VISUALSTYLE
  5
2F
102
{ACAD_REACTORS
330
2A
102
}
102
{ACAD_XDICTIONARY
360
1A8
102
}
330
2A
100
AcDbVisualStyle
  2
2dWireframe
 70
     4
 71
     0
 72
     2
 73
     0
 90
        0
 40
-0.6
 41
-30.0
 62
     5
 63
     7
421
 16777215
 74
     1
 91
        4
 64
     7
 65
   257
 75
     1
175
     1
 42
1.0
 92
        0
 66
   257
 43
1.0
 76
     1
 77
     6
 78
     2
 67
     7
 79
     5
170
     0
171
     0
290
     0
174
     0
 93
        1
 44
0.0
173
     0
291
     0
 45
0.0
1001
ACAD
1000
AcDbSavedByObjectVersion
1070
     0
  0
VISUALSTYLE
  5
31
102
{ACAD_REACTORS
330
2A
102
}
102
{ACAD_XDICTIONARY
360
1AC
102
}
330
2A
100
AcDbVisualStyle
  2
3D Hidden
 70
     6
 71
     1
 72
     2
 73
     2
 90
        0
 40
-0.6
 41
-30.0
 62
     5
 63
     7
421
 16777215
 74
     2
 91
        2
 64
     7
 65
   257
 75
     2
175
     1
 42
40.0
 92
        0
 66
   257
 43
1.0
 76
     1
 77
     6
 78
     2
 67
     7
 79
     3
170
     0
171
     0
290
     0
174
     0
 93
        1
 44
0.0
173
     0
291
     0
 45
0.0
1001
ACAD
1000
AcDbSavedByObjectVersion
1070
     0
  0
VISUALSTYLE
  5
30
102
{ACAD_REACTORS
330
2A
102
}
102
{ACAD_XDICTIONARY
360
1AA
102
}
330
2A
100
AcDbVisualStyle
  2
3dWireframe
 70
     5
 71
     0
 72
     2
 73
     0
 90
        0
 40
-0.6
 41
-30.0
 62
     5
 63
     7
421
 16777215
 74
     1
 91
        4
 64
     7
 65
   257
 75
     1
175
     1
 42
1.0
 92
        0
 66
   257
 43
1.0
 76
     1
 77
     6
 78
     2
 67
     7
 79
     5
170
     0
171
     0
290
     0
174
     0
 93
        1
 44
0.0
173
     0
291
     0
 45
0.0
1001
ACAD
1000
AcDbSavedByObjectVersion
1070
     0
  0
VISUALSTYLE
  5
32
102
{ACAD_REACTORS
330
2A
102
}
102
{ACAD_XDICTIONARY
360
1AE
102
}
330
2A
100
AcDbVisualStyle
  2
Basic
 70
     7
 71
     1
 72
     0
 73
     1
 90
        0
 40
-0.6
 41
-30.0
 62
     5
 63
     7
421
 16777215
 74
     0
 91
        4
 64
     7
 65
   257
 75
     1
175
     1
 42
1.0
 92
        8
 66
     7
 43
1.0
 76
     1
 77
     6
 78
     2
 67
     7
 79
     5
170
     0
171
     0
290
     0
174
     0
 93
        1
 44
0.0
173
     0
291
     1
 45
0.0
1001
ACAD
1000
AcDbSavedByObjectVersion
1070
     0
  0
VISUALSTYLE
  5
36
102
{ACAD_REACTORS
330
2A
102
}
102
{ACAD_XDICTIONARY
360
1B6
102
}
330
2A
100
AcDbVisualStyle
  2
Brighten
 70
    12
 71
     2
 72
     2
 73
     0
 90
        0
 40
-0.6
 41
-30.0
 62
     5
 63
     7
421
 16777215
 74
     1
 91
        4
 64
     7
 65
   257
 75
     1
175
     1
 42
1.0
 92
        8
 66
     7
 43
1.0
 76
     1
 77
     6
 78
     2
 67
     7
 79
     5
170
     0
171
     0
290
     0
174
     0
 93
        1
 44
50.0
173
     0
291
     1
 45
0.0
1001
ACAD
1000
AcDbSavedByObjectVersion
1070
     0
  0
VISUALSTYLE
  5
3A
102
{ACAD_REACTORS
330
2A
102
}
102
{ACAD_XDICTIONARY
360
1BE
102
}
330
2A
100
AcDbVisualStyle
  2
ColorChange
 70
    16
 71
     2
 72
     2
 73
     3
 90
        0
 40
-0.6
 41
-30.0
 62
     5
 63
     8
421
  8421504
 74
     1
 91
        4
 64
     7
 65
   257
 75
     1
175
     1
 42
1.0
 92
        8
 66
     8
424
  8421504
 43
1.0
 76
     1
 77
     6
 78
     2
 67
     7
 79
     5
170
     0
171
     0
290
     0
174
     0
 93
        1
 44
0.0
173
     0
291
     1
 45
0.0
1001
ACAD
1000
AcDbSavedByObjectVersion
1070
     0
  0
VISUALSTYLE
  5
34
102
{ACAD_REACTORS
330
2A
102
}
102
{ACAD_XDICTIONARY
360
1B2
102
}
330
2A
100
AcDbVisualStyle
  2
Conceptual
 70
     9
 71
     3
 72
     2
 73
     0
 90
        0
 40
-0.6
 41
-30.0
 62
     5
 63
     7
421
 16777215
 74
     2
 91
        2
 64
     7
 65
   257
 75
     1
175
     1
 42
40.0
 92
        8
 66
     7
 43
1.0
 76
     1
 77
     6
 78
     2
 67
     7
 79
     3
170
     0
171
     0
290
     0
174
     0
 93
        1
 44
0.0
173
     0
291
     0
 45
0.0
1001
ACAD
1000
AcDbSavedByObjectVersion
1070
     0
  0
VISUALSTYLE
  5
35
102
{ACAD_REACTORS
330
2A
102
}
102
{ACAD_XDICTIONARY
360
1B4
102
}
330
2A
100
AcDbVisualStyle
  2
Dim
 70
    11
 71
     2
 72
     2
 73
     0
 90
        0
 40
-0.6
 41
-30.0
 62
     5
 63
     7
421
 16777215
 74
     1
 91
        4
 64
     7
 65
   257
 75
     1
175
     1
 42
1.0
 92
        8
 66
     7
 43
1.0
 76
     1
 77
     6
 78
     2
 67
     7
 79
     5
170
     0
171
     0
290
     0
174
     0
 93
        1
 44
-50.0
173
     0
291
     1
 45
0.0
1001
ACAD
1000
AcDbSavedByObjectVersion
1070
     0
  0
VISUALSTYLE
  5
39
102
{ACAD_REACTORS
330
2A
102
}
102
{ACAD_XDICTIONARY
360
1BC
102
}
330
2A
100
AcDbVisualStyle
  2
Facepattern
 70
    15
 71
     2
 72
     2
 73
     0
 90
        0
 40
-0.6
 41
-30.0
 62
     5
 63
     7
421
 16777215
 74
     1
 91
        4
 64
     7
 65
   257
 75
     1
175
     1
 42
1.0
 92
        8
 66
     7
 43
1.0
 76
     1
 77
     6
 78
     2
 67
     7
 79
     5
170
     0
171
     0
290
     0
174
     0
 93
        1
 44
0.0
173
     0
291
     1
 45
0.0
1001
ACAD
1000
AcDbSavedByObjectVersion
1070
     0
  0
VISUALSTYLE
  5
2B
102
{ACAD_REACTORS
330
2A
102
}
102
{ACAD_XDICTIONARY
360
1A0
102
}
330
2A
100
AcDbVisualStyle
  2
Flat
 70
     0
 71
     2
 72
     1
 73
     1
 90
        2
 40
-0.6
 41
30.0
 62
     5
 63
     7
421
 16777215
 74
     0
 91
        4
 64
     7
 65
   257
 75
     1
175
     1
 42
1.0
 92
        8
 66
     7
 43
1.0
 76
     1
 77
     6
 78
     2
 67
     7
 79
     5
170
     0
171
     0
290
     0
174
     0
 93
       13
 44
0.0
173
     0
291
     1
 45
0.0
1001
ACAD
1000
AcDbSavedByObjectVersion
1070
     0
  0
VISUALSTYLE
  5
2C
102
{ACAD_REACTORS
330
2A
102
}
102
{ACAD_XDICTIONARY
360
1A2
102
}
330
2A
100
AcDbVisualStyle
  2
FlatWithEdges
 70
     1
 71
     2
 72
     1
 73
     1
 90
        2
 40
-0.6
 41
30.0
 62
     5
 63
     7
421
 16777215
 74
     1
 91
        4
 64
     7
 65
   257
 75
     1
175
     1
 42
1.0
 92
        0
 66
   257
 43
1.0
 76
     1
 77
     6
 78
     2
 67
     7
 79
     5
170
     0
171
     0
290
     0
174
     0
 93
       13
 44
0.0
173
     0
291
     1
 45
0.0
1001
ACAD
1000
AcDbSavedByObjectVersion
1070
     0
  0
VISUALSTYLE
  5
2D
102
{ACAD_REACTORS
330
2A
102
}
102
{ACAD_XDICTIONARY
360
1A4
102
}
330
2A
100
AcDbVisualStyle
  2
Gouraud
 70
     2
 71
     2
 72
     2
 73
     1
 90
        2
 40
-0.6
 41
30.0
 62
     5
 63
     7
421
 16777215
 74
     0
 91
        4
 64
     7
 65
   257
 75
     1
175
     1
 42
1.0
 92
        0
 66
     7
 43
1.0
 76
     1
 77
     6
 78
     2
 67
     7
 79
     5
170
     0
171
     0
290
     0
174
     0
 93
       13
 44
0.0
173
     0
291
     1
 45
0.0
1001
ACAD
1000
AcDbSavedByObjectVersion
1070
     0
  0
VISUALSTYLE
  5
2E
102
{ACAD_REACTORS
330
2A
102
}
102
{ACAD_XDICTIONARY
360
1A6
102
}
330
2A
100
AcDbVisualStyle
  2
GouraudWithEdges
 70
     3
 71
     2
 72
     2
 73
     1
 90
        2
 40
-0.6
 41
30.0
 62
     5
 63
     7
421
 16777215
 74
     1
 91
        4
 64
     7
 65
   257
 75
     1
175
     1
 42
1.0
 92
        0
 66
   257
 43
1.0
 76
     1
 77
     6
 78
     2
 67
     7
 79
     5
170
     0
171
     0
290
     0
174
     0
 93
       13
 44
0.0
173
     0
291
     1
 45
0.0
1001
ACAD
1000
AcDbSavedByObjectVersion
1070
     0
  0
VISUALSTYLE
  5
38
102
{ACAD_REACTORS
330
2A
102
}
102
{ACAD_XDICTIONARY
360
1BA
102
}
330
2A
100
AcDbVisualStyle
  2
Linepattern
 70
    14
 71
     2
 72
     2
 73
     0
 90
        0
 40
-0.6
 41
-30.0
 62
     5
 63
     7
421
 16777215
 74
     1
 91
        4
 64
     7
 65
   257
 75
     7
175
     7
 42
1.0
 92
        8
 66
     7
 43
1.0
 76
     1
 77
     6
 78
     2
 67
     7
 79
     5
170
     0
171
     0
290
     0
174
     0
 93
        1
 44
0.0
173
     0
291
     1
 45
0.0
1001
ACAD
1000
AcDbSavedByObjectVersion
1070
     0
  0
VISUALSTYLE
  5
33
102
{ACAD_REACTORS
330
2A
102
}
102
{ACAD_XDICTIONARY
360
1B0
102
}
330
2A
100
AcDbVisualStyle
  2
Realistic
 70
     8
 71
     2
 72
     2
 73
     0
 90
        0
 40
-0.6
 41
-30.0
 62
     5
 63
     7
421
 16777215
 74
     1
 91
        0
 64
     7
 65
   257
 75
     1
175
     1
 42
1.0
 92
        8
 66
     8
424
  7895160
 43
1.0
 76
     1
 77
     6
 78
     2
 67
     7
 79
     5
170
     0
171
     0
290
     0
174
     0
 93
       13
 44
0.0
173
     0
291
     0
 45
0.0
1001
ACAD
1000
AcDbSavedByObjectVersion
1070
     0
  0
VISUALSTYLE
  5
37
102
{ACAD_REACTORS
330
2A
102
}
102
{ACAD_XDICTIONARY
360
1B8
102
}
330
2A
100
AcDbVisualStyle
  2
Thicken
 70
    13
 71
     2
 72
     2
 73
     0
 90
        0
 40
-0.6
 41
-30.0
 62
     5
 63
     7
421
 16777215
 74
     1
 91
        4
 64
     7
 65
   257
 75
     1
175
     1
 42
1.0
 92
       12
 66
     7
 43
1.0
 76
     1
 77
     6
 78
     2
 67
     7
 79
     5
170
     0
171
     0
290
     0
174
     0
 93
        1
 44
0.0
173
     0
291
     1
 45
0.0
1001
ACAD
1000
AcDbSavedByObjectVersion
1070
     0
  0
DICTIONARY
  5
1C2
330
3D
100
AcDbDictionary
280
     1
281
     1
  3
ACAD_XREC_ROUNDTRIP
360
1C3
  0
DICTIONARY
  5
1C0
330
3C
100
AcDbDictionary
280
     1
281
     1
  3
ACAD_XREC_ROUNDTRIP
360
1C1
  0
DICTIONARY
  5
1C4
330
3E
100
AcDbDictionary
280
     1
281
     1
  3
ACAD_XREC_ROUNDTRIP
360
1C5
  0
DICTIONARY
  5
1A8
330
2F
100
AcDbDictionary
280
     1
281
     1
  3
ACAD_XREC_ROUNDTRIP
360
1A9
  0
DICTIONARY
  5
1AC
330
31
100
AcDbDictionary
280
     1
281
     1
  3
ACAD_XREC_ROUNDTRIP
360
1AD
  0
DICTIONARY
  5
1AA
330
30
100
AcDbDictionary
280
     1
281
     1
  3
ACAD_XREC_ROUNDTRIP
360
1AB
  0
DICTIONARY
  5
1AE
330
32
100
AcDbDictionary
280
     1
281
     1
  3
ACAD_XREC_ROUNDTRIP
360
1AF
  0
DICTIONARY
  5
1B6
330
36
100
AcDbDictionary
280
     1
281
     1
  3
ACAD_XREC_ROUNDTRIP
360
1B7
  0
DICTIONARY
  5
1BE
330
3A
100
AcDbDictionary
280
     1
281
     1
  3
ACAD_XREC_ROUNDTRIP
360
1BF
  0
DICTIONARY
  5
1B2
330
34
100
AcDbDictionary
280
     1
281
     1
  3
ACAD_XREC_ROUNDTRIP
360
1B3
  0
DICTIONARY
  5
1B4
330
35
100
AcDbDictionary
280
     1
281
     1
  3
ACAD_XREC_ROUNDTRIP
360
1B5
  0
DICTIONARY
  5
1BC
330
39
100
AcDbDictionary
280
     1
281
     1
  3
ACAD_XREC_ROUNDTRIP
360
1BD
  0
DICTIONARY
  5
1A0
330
2B
100
AcDbDictionary
280
     1
281
     1
  3
ACAD_XREC_ROUNDTRIP
360
1A1
  0
DICTIONARY
  5
1A2
330
2C
100
AcDbDictionary
280
     1
281
     1
  3
ACAD_XREC_ROUNDTRIP
360
1A3
  0
DICTIONARY
  5
1A4
330
2D
100
AcDbDictionary
280
     1
281
     1
  3
ACAD_XREC_ROUNDTRIP
360
1A5
  0
DICTIONARY
  5
1A6
330
2E
100
AcDbDictionary
280
     1
281
     1
  3
ACAD_XREC_ROUNDTRIP
360
1A7
  0
DICTIONARY
  5
1BA
330
38
100
AcDbDictionary
280
     1
281
     1
  3
ACAD_XREC_ROUNDTRIP
360
1BB
  0
DICTIONARY
  5
1B0
330
33
100
AcDbDictionary
280
     1
281
     1
  3
ACAD_XREC_ROUNDTRIP
360
1B1
  0
DICTIONARY
  5
1B8
330
37
100
AcDbDictionary
280
     1
281
     1
  3
ACAD_XREC_ROUNDTRIP
360
1B9
  0
XRECORD
  5
1C3
102
{ACAD_REACTORS
330
1C2
102
}
330
1C2
100
AcDbXrecord
280
     1
102
MATERIAL
148
0.0
149
0.0
149
0.0
 93
        0
 94
      127
282
     0
 72
     1
 77
     1
171
     1
175
     1
179
     1
273
     0
  0
XRECORD
  5
1C1
102
{ACAD_REACTORS
330
1C0
102
}
330
1C0
100
AcDbXrecord
280
     1
102
MATERIAL
148
0.0
149
0.0
149
0.0
 93
        0
 94
      127
282
     0
 72
     1
 77
     1
171
     1
175
     1
179
     1
273
     0
  0
XRECORD
  5
1C5
102
{ACAD_REACTORS
330
1C4
102
}
330
1C4
100
AcDbXrecord
280
     1
102
MATERIAL
148
0.0
149
0.0
149
0.0
 93
        0
 94
      127
282
     0
 72
     1
 77
     1
171
     1
175
     1
179
     1
273
     0
  0
XRECORD
  5
1A9
102
{ACAD_REACTORS
330
1A8
102
}
330
1A8
100
AcDbXrecord
280
     1
102
RTVSPropertyOp0
 70
     1
102
RTVSPropertyOp1
 70
     1
102
RTVSPropertyOp2
 70
     1
102
RTVSPropertyOp3
 70
     1
102
RTVSPropertyOp4
 70
     1
102
RTVSPropertyOp5
 70
     1
102
RTVSPropertyOp6
 70
     1
102
RTVSPropertyOp7
 70
     1
102
RTVSPropertyOp8
 70
     1
102
RTVSPropertyOp9
 70
     1
102
RTVSPropertyOp10
 70
     1
102
RTVSPropertyOp11
 70
     1
102
RTVSPropertyOp12
 70
     1
102
RTVSPropertyOp13
 70
     1
102
RTVSPropertyOp14
 70
     1
102
RTVSPropertyOp15
 70
     1
102
RTVSPropertyOp16
 70
     1
102
RTVSPropertyOp17
 70
     1
102
RTVSPropertyOp18
 70
     1
102
RTVSPropertyOp19
 70
     1
102
RTVSPropertyOp20
 70
     1
102
RTVSPropertyOp21
 70
     1
102
RTVSPropertyOp22
 70
     1
102
RTVSPropertyOp23
 70
     1
102
RTVSPropertyOp24
 70
     1
102
RTVSPropertyOp25
 70
     1
102
RTVSPropertyOp26
 70
     1
102
RTVSPropertyOp27
 70
     1
102
RTVSPropertyOp28
 70
     1
102
RTVSPropertyOp29
 70
     1
102
RTVSPropertyOp30
 70
     1
102
RTVSPropertyOp31
 70
     1
102
RTVSPropertyOp32
 70
     1
  0
XRECORD
  5
1AD
102
{ACAD_REACTORS
330
1AC
102
}
330
1AC
100
AcDbXrecord
280
     1
102
RTVSPropertyOp0
 70
     1
102
RTVSPropertyOp1
 70
     1
102
RTVSPropertyOp2
 70
     1
102
RTVSPropertyOp3
 70
     1
102
RTVSPropertyOp4
 70
     1
102
RTVSPropertyOp5
 70
     1
102
RTVSPropertyOp6
 70
     1
102
RTVSPropertyOp7
 70
     1
102
RTVSPropertyOp8
 70
     1
102
RTVSPropertyOp9
 70
     1
102
RTVSPropertyOp10
 70
     1
102
RTVSPropertyOp11
 70
     1
102
RTVSPropertyOp12
 70
     1
102
RTVSPropertyOp13
 70
     1
102
RTVSPropertyOp14
 70
     1
102
RTVSPropertyOp15
 70
     1
102
RTVSPropertyOp16
 70
     1
102
RTVSPropertyOp17
 70
     1
102
RTVSPropertyOp18
 70
     1
102
RTVSPropertyOp19
 70
     1
102
RTVSPropertyOp20
 70
     1
102
RTVSPropertyOp21
 70
     1
102
RTVSPropertyOp22
 70
     1
102
RTVSPropertyOp23
 70
     1
102
RTVSPropertyOp24
 70
     1
102
RTVSPropertyOp25
 70
     1
102
RTVSPropertyOp26
 70
     1
102
RTVSPropertyOp27
 70
     1
102
RTVSPropertyOp28
 70
     1
102
RTVSPropertyOp29
 70
     1
102
RTVSPropertyOp30
 70
     1
102
RTVSPropertyOp31
 70
     1
102
RTVSPropertyOp32
 70
     1
  0
XRECORD
  5
1AB
102
{ACAD_REACTORS
330
1AA
102
}
330
1AA
100
AcDbXrecord
280
     1
102
RTVSPropertyOp0
 70
     1
102
RTVSPropertyOp1
 70
     1
102
RTVSPropertyOp2
 70
     1
102
RTVSPropertyOp3
 70
     1
102
RTVSPropertyOp4
 70
     1
102
RTVSPropertyOp5
 70
     1
102
RTVSPropertyOp6
 70
     1
102
RTVSPropertyOp7
 70
     1
102
RTVSPropertyOp8
 70
     1
102
RTVSPropertyOp9
 70
     1
102
RTVSPropertyOp10
 70
     1
102
RTVSPropertyOp11
 70
     1
102
RTVSPropertyOp12
 70
     1
102
RTVSPropertyOp13
 70
     1
102
RTVSPropertyOp14
 70
     1
102
RTVSPropertyOp15
 70
     1
102
RTVSPropertyOp16
 70
     1
102
RTVSPropertyOp17
 70
     1
102
RTVSPropertyOp18
 70
     1
102
RTVSPropertyOp19
 70
     1
102
RTVSPropertyOp20
 70
     1
102
RTVSPropertyOp21
 70
     1
102
RTVSPropertyOp22
 70
     1
102
RTVSPropertyOp23
 70
     1
102
RTVSPropertyOp24
 70
     1
102
RTVSPropertyOp25
 70
     1
102
RTVSPropertyOp26
 70
     1
102
RTVSPropertyOp27
 70
     1
102
RTVSPropertyOp28
 70
     1
102
RTVSPropertyOp29
 70
     1
102
RTVSPropertyOp30
 70
     1
102
RTVSPropertyOp31
 70
     1
102
RTVSPropertyOp32
 70
     1
  0
XRECORD
  5
1AF
102
{ACAD_REACTORS
330
1AE
102
}
330
1AE
100
AcDbXrecord
280
     1
102
RTVSPropertyOp0
 70
     1
102
RTVSPropertyOp1
 70
     1
102
RTVSPropertyOp2
 70
     1
102
RTVSPropertyOp3
 70
     1
102
RTVSPropertyOp4
 70
     1
102
RTVSPropertyOp5
 70
     1
102
RTVSPropertyOp6
 70
     1
102
RTVSPropertyOp7
 70
     1
102
RTVSPropertyOp8
 70
     1
102
RTVSPropertyOp9
 70
     1
102
RTVSPropertyOp10
 70
     1
102
RTVSPropertyOp11
 70
     1
102
RTVSPropertyOp12
 70
     1
102
RTVSPropertyOp13
 70
     1
102
RTVSPropertyOp14
 70
     1
102
RTVSPropertyOp15
 70
     1
102
RTVSPropertyOp16
 70
     1
102
RTVSPropertyOp17
 70
     1
102
RTVSPropertyOp18
 70
     1
102
RTVSPropertyOp19
 70
     1
102
RTVSPropertyOp20
 70
     1
102
RTVSPropertyOp21
 70
     1
102
RTVSPropertyOp22
 70
     1
102
RTVSPropertyOp23
 70
     1
102
RTVSPropertyOp24
 70
     1
102
RTVSPropertyOp25
 70
     1
102
RTVSPropertyOp26
 70
     1
102
RTVSPropertyOp27
 70
     1
102
RTVSPropertyOp28
 70
     1
102
RTVSPropertyOp29
 70
     1
102
RTVSPropertyOp30
 70
     1
102
RTVSPropertyOp31
 70
     1
102
RTVSPropertyOp32
 70
     1
  0
XRECORD
  5
1B7
102
{ACAD_REACTORS
330
1B6
102
}
330
1B6
100
AcDbXrecord
280
     1
102
RTVSPropertyOp0
 70
     1
102
RTVSPropertyOp1
 70
     1
102
RTVSPropertyOp2
 70
     1
102
RTVSPropertyOp3
 70
     1
102
RTVSPropertyOp4
 70
     1
102
RTVSPropertyOp5
 70
     1
102
RTVSPropertyOp6
 70
     1
102
RTVSPropertyOp7
 70
     1
102
RTVSPropertyOp8
 70
     1
102
RTVSPropertyOp9
 70
     1
102
RTVSPropertyOp10
 70
     1
102
RTVSPropertyOp11
 70
     1
102
RTVSPropertyOp12
 70
     1
102
RTVSPropertyOp13
 70
     1
102
RTVSPropertyOp14
 70
     1
102
RTVSPropertyOp15
 70
     1
102
RTVSPropertyOp16
 70
     1
102
RTVSPropertyOp17
 70
     1
102
RTVSPropertyOp18
 70
     1
102
RTVSPropertyOp19
 70
     1
102
RTVSPropertyOp20
 70
     1
102
RTVSPropertyOp21
 70
     1
102
RTVSPropertyOp22
 70
     1
102
RTVSPropertyOp23
 70
     1
102
RTVSPropertyOp24
 70
     1
102
RTVSPropertyOp25
 70
     1
102
RTVSPropertyOp26
 70
     1
102
RTVSPropertyOp27
 70
     1
102
RTVSPropertyOp28
 70
     1
102
RTVSPropertyOp29
 70
     1
102
RTVSPropertyOp30
 70
     1
102
RTVSPropertyOp31
 70
     1
102
RTVSPropertyOp32
 70
     1
  0
XRECORD
  5
1BF
102
{ACAD_REACTORS
330
1BE
102
}
330
1BE
100
AcDbXrecord
280
     1
102
RTVSPropertyOp0
 70
     1
102
RTVSPropertyOp1
 70
     1
102
RTVSPropertyOp2
 70
     1
102
RTVSPropertyOp3
 70
     1
102
RTVSPropertyOp4
 70
     1
102
RTVSPropertyOp5
 70
     1
102
RTVSPropertyOp6
 70
     1
102
RTVSPropertyOp7
 70
     1
102
RTVSPropertyOp8
 70
     1
102
RTVSPropertyOp9
 70
     1
102
RTVSPropertyOp10
 70
     1
102
RTVSPropertyOp11
 70
     1
102
RTVSPropertyOp12
 70
     1
102
RTVSPropertyOp13
 70
     1
102
RTVSPropertyOp14
 70
     1
102
RTVSPropertyOp15
 70
     1
102
RTVSPropertyOp16
 70
     1
102
RTVSPropertyOp17
 70
     1
102
RTVSPropertyOp18
 70
     1
102
RTVSPropertyOp19
 70
     1
102
RTVSPropertyOp20
 70
     1
102
RTVSPropertyOp21
 70
     1
102
RTVSPropertyOp22
 70
     1
102
RTVSPropertyOp23
 70
     1
102
RTVSPropertyOp24
 70
     1
102
RTVSPropertyOp25
 70
     1
102
RTVSPropertyOp26
 70
     1
102
RTVSPropertyOp27
 70
     1
102
RTVSPropertyOp28
 70
     1
102
RTVSPropertyOp29
 70
     1
102
RTVSPropertyOp30
 70
     1
102
RTVSPropertyOp31
 70
     1
102
RTVSPropertyOp32
 70
     1
  0
XRECORD
  5
1B3
102
{ACAD_REACTORS
330
1B2
102
}
330
1B2
100
AcDbXrecord
280
     1
102
RTVSPropertyOp0
 70
     1
102
RTVSPropertyOp1
 70
     1
102
RTVSPropertyOp2
 70
     1
102
RTVSPropertyOp3
 70
     1
102
RTVSPropertyOp4
 70
     1
102
RTVSPropertyOp5
 70
     1
102
RTVSPropertyOp6
 70
     1
102
RTVSPropertyOp7
 70
     1
102
RTVSPropertyOp8
 70
     1
102
RTVSPropertyOp9
 70
     1
102
RTVSPropertyOp10
 70
     1
102
RTVSPropertyOp11
 70
     1
102
RTVSPropertyOp12
 70
     1
102
RTVSPropertyOp13
 70
     1
102
RTVSPropertyOp14
 70
     1
102
RTVSPropertyOp15
 70
     1
102
RTVSPropertyOp16
 70
     1
102
RTVSPropertyOp17
 70
     1
102
RTVSPropertyOp18
 70
     1
102
RTVSPropertyOp19
 70
     1
102
RTVSPropertyOp20
 70
     1
102
RTVSPropertyOp21
 70
     1
102
RTVSPropertyOp22
 70
     1
102
RTVSPropertyOp23
 70
     1
102
RTVSPropertyOp24
 70
     1
102
RTVSPropertyOp25
 70
     1
102
RTVSPropertyOp26
 70
     1
102
RTVSPropertyOp27
 70
     1
102
RTVSPropertyOp28
 70
     1
102
RTVSPropertyOp29
 70
     1
102
RTVSPropertyOp30
 70
     1
102
RTVSPropertyOp31
 70
     1
102
RTVSPropertyOp32
 70
     1
  0
XRECORD
  5
1B5
102
{ACAD_REACTORS
330
1B4
102
}
330
1B4
100
AcDbXrecord
280
     1
102
RTVSPropertyOp0
 70
     1
102
RTVSPropertyOp1
 70
     1
102
RTVSPropertyOp2
 70
     1
102
RTVSPropertyOp3
 70
     1
102
RTVSPropertyOp4
 70
     1
102
RTVSPropertyOp5
 70
     1
102
RTVSPropertyOp6
 70
     1
102
RTVSPropertyOp7
 70
     1
102
RTVSPropertyOp8
 70
     1
102
RTVSPropertyOp9
 70
     1
102
RTVSPropertyOp10
 70
     1
102
RTVSPropertyOp11
 70
     1
102
RTVSPropertyOp12
 70
     1
102
RTVSPropertyOp13
 70
     1
102
RTVSPropertyOp14
 70
     1
102
RTVSPropertyOp15
 70
     1
102
RTVSPropertyOp16
 70
     1
102
RTVSPropertyOp17
 70
     1
102
RTVSPropertyOp18
 70
     1
102
RTVSPropertyOp19
 70
     1
102
RTVSPropertyOp20
 70
     1
102
RTVSPropertyOp21
 70
     1
102
RTVSPropertyOp22
 70
     1
102
RTVSPropertyOp23
 70
     1
102
RTVSPropertyOp24
 70
     1
102
RTVSPropertyOp25
 70
     1
102
RTVSPropertyOp26
 70
     1
102
RTVSPropertyOp27
 70
     1
102
RTVSPropertyOp28
 70
     1
102
RTVSPropertyOp29
 70
     1
102
RTVSPropertyOp30
 70
     1
102
RTVSPropertyOp31
 70
     1
102
RTVSPropertyOp32
 70
     1
  0
XRECORD
  5
1BD
102
{ACAD_REACTORS
330
1BC
102
}
330
1BC
100
AcDbXrecord
280
     1
102
RTVSPropertyOp0
 70
     1
102
RTVSPropertyOp1
 70
     1
102
RTVSPropertyOp2
 70
     1
102
RTVSPropertyOp3
 70
     1
102
RTVSPropertyOp4
 70
     1
102
RTVSPropertyOp5
 70
     1
102
RTVSPropertyOp6
 70
     1
102
RTVSPropertyOp7
 70
     1
102
RTVSPropertyOp8
 70
     1
102
RTVSPropertyOp9
 70
     1
102
RTVSPropertyOp10
 70
     1
102
RTVSPropertyOp11
 70
     1
102
RTVSPropertyOp12
 70
     1
102
RTVSPropertyOp13
 70
     1
102
RTVSPropertyOp14
 70
     1
102
RTVSPropertyOp15
 70
     1
102
RTVSPropertyOp16
 70
     1
102
RTVSPropertyOp17
 70
     1
102
RTVSPropertyOp18
 70
     1
102
RTVSPropertyOp19
 70
     1
102
RTVSPropertyOp20
 70
     1
102
RTVSPropertyOp21
 70
     1
102
RTVSPropertyOp22
 70
     1
102
RTVSPropertyOp23
 70
     1
102
RTVSPropertyOp24
 70
     1
102
RTVSPropertyOp25
 70
     1
102
RTVSPropertyOp26
 70
     1
102
RTVSPropertyOp27
 70
     1
102
RTVSPropertyOp28
 70
     1
102
RTVSPropertyOp29
 70
     1
102
RTVSPropertyOp30
 70
     1
102
RTVSPropertyOp31
 70
     1
102
RTVSPropertyOp32
 70
     1
  0
XRECORD
  5
1A1
102
{ACAD_REACTORS
330
1A0
102
}
330
1A0
100
AcDbXrecord
280
     1
102
RTVSPropertyOp0
 70
     1
102
RTVSPropertyOp1
 70
     1
102
RTVSPropertyOp2
 70
     1
102
RTVSPropertyOp3
 70
     1
102
RTVSPropertyOp4
 70
     1
102
RTVSPropertyOp5
 70
     1
102
RTVSPropertyOp6
 70
     1
102
RTVSPropertyOp7
 70
     1
102
RTVSPropertyOp8
 70
     1
102
RTVSPropertyOp9
 70
     1
102
RTVSPropertyOp10
 70
     1
102
RTVSPropertyOp11
 70
     1
102
RTVSPropertyOp12
 70
     1
102
RTVSPropertyOp13
 70
     1
102
RTVSPropertyOp14
 70
     1
102
RTVSPropertyOp15
 70
     1
102
RTVSPropertyOp16
 70
     1
102
RTVSPropertyOp17
 70
     1
102
RTVSPropertyOp18
 70
     1
102
RTVSPropertyOp19
 70
     1
102
RTVSPropertyOp20
 70
     1
102
RTVSPropertyOp21
 70
     1
102
RTVSPropertyOp22
 70
     1
102
RTVSPropertyOp23
 70
     1
102
RTVSPropertyOp24
 70
     1
102
RTVSPropertyOp25
 70
     1
102
RTVSPropertyOp26
 70
     1
102
RTVSPropertyOp27
 70
     1
102
RTVSPropertyOp28
 70
     1
102
RTVSPropertyOp29
 70
     1
102
RTVSPropertyOp30
 70
     1
102
RTVSPropertyOp31
 70
     1
102
RTVSPropertyOp32
 70
     1
  0
XRECORD
  5
1A3
102
{ACAD_REACTORS
330
1A2
102
}
330
1A2
100
AcDbXrecord
280
     1
102
RTVSPropertyOp0
 70
     1
102
RTVSPropertyOp1
 70
     1
102
RTVSPropertyOp2
 70
     1
102
RTVSPropertyOp3
 70
     1
102
RTVSPropertyOp4
 70
     1
102
RTVSPropertyOp5
 70
     1
102
RTVSPropertyOp6
 70
     1
102
RTVSPropertyOp7
 70
     1
102
RTVSPropertyOp8
 70
     1
102
RTVSPropertyOp9
 70
     1
102
RTVSPropertyOp10
 70
     1
102
RTVSPropertyOp11
 70
     1
102
RTVSPropertyOp12
 70
     1
102
RTVSPropertyOp13
 70
     1
102
RTVSPropertyOp14
 70
     1
102
RTVSPropertyOp15
 70
     1
102
RTVSPropertyOp16
 70
     1
102
RTVSPropertyOp17
 70
     1
102
RTVSPropertyOp18
 70
     1
102
RTVSPropertyOp19
 70
     1
102
RTVSPropertyOp20
 70
     1
102
RTVSPropertyOp21
 70
     1
102
RTVSPropertyOp22
 70
     1
102
RTVSPropertyOp23
 70
     1
102
RTVSPropertyOp24
 70
     1
102
RTVSPropertyOp25
 70
     1
102
RTVSPropertyOp26
 70
     1
102
RTVSPropertyOp27
 70
     1
102
RTVSPropertyOp28
 70
     1
102
RTVSPropertyOp29
 70
     1
102
RTVSPropertyOp30
 70
     1
102
RTVSPropertyOp31
 70
     1
102
RTVSPropertyOp32
 70
     1
  0
XRECORD
  5
1A5
102
{ACAD_REACTORS
330
1A4
102
}
330
1A4
100
AcDbXrecord
280
     1
102
RTVSPropertyOp0
 70
     1
102
RTVSPropertyOp1
 70
     1
102
RTVSPropertyOp2
 70
     1
102
RTVSPropertyOp3
 70
     1
102
RTVSPropertyOp4
 70
     1
102
RTVSPropertyOp5
 70
     1
102
RTVSPropertyOp6
 70
     1
102
RTVSPropertyOp7
 70
     1
102
RTVSPropertyOp8
 70
     1
102
RTVSPropertyOp9
 70
     1
102
RTVSPropertyOp10
 70
     1
102
RTVSPropertyOp11
 70
     1
102
RTVSPropertyOp12
 70
     1
102
RTVSPropertyOp13
 70
     1
102
RTVSPropertyOp14
 70
     1
102
RTVSPropertyOp15
 70
     1
102
RTVSPropertyOp16
 70
     1
102
RTVSPropertyOp17
 70
     1
102
RTVSPropertyOp18
 70
     1
102
RTVSPropertyOp19
 70
     1
102
RTVSPropertyOp20
 70
     1
102
RTVSPropertyOp21
 70
     1
102
RTVSPropertyOp22
 70
     1
102
RTVSPropertyOp23
 70
     1
102
RTVSPropertyOp24
 70
     1
102
RTVSPropertyOp25
 70
     1
102
RTVSPropertyOp26
 70
     1
102
RTVSPropertyOp27
 70
     1
102
RTVSPropertyOp28
 70
     1
102
RTVSPropertyOp29
 70
     1
102
RTVSPropertyOp30
 70
     1
102
RTVSPropertyOp31
 70
     1
102
RTVSPropertyOp32
 70
     1
  0
XRECORD
  5
1A7
102
{ACAD_REACTORS
330
1A6
102
}
330
1A6
100
AcDbXrecord
280
     1
102
RTVSPropertyOp0
 70
     1
102
RTVSPropertyOp1
 70
     1
102
RTVSPropertyOp2
 70
     1
102
RTVSPropertyOp3
 70
     1
102
RTVSPropertyOp4
 70
     1
102
RTVSPropertyOp5
 70
     1
102
RTVSPropertyOp6
 70
     1
102
RTVSPropertyOp7
 70
     1
102
RTVSPropertyOp8
 70
     1
102
RTVSPropertyOp9
 70
     1
102
RTVSPropertyOp10
 70
     1
102
RTVSPropertyOp11
 70
     1
102
RTVSPropertyOp12
 70
     1
102
RTVSPropertyOp13
 70
     1
102
RTVSPropertyOp14
 70
     1
102
RTVSPropertyOp15
 70
     1
102
RTVSPropertyOp16
 70
     1
102
RTVSPropertyOp17
 70
     1
102
RTVSPropertyOp18
 70
     1
102
RTVSPropertyOp19
 70
     1
102
RTVSPropertyOp20
 70
     1
102
RTVSPropertyOp21
 70
     1
102
RTVSPropertyOp22
 70
     1
102
RTVSPropertyOp23
 70
     1
102
RTVSPropertyOp24
 70
     1
102
RTVSPropertyOp25
 70
     1
102
RTVSPropertyOp26
 70
     1
102
RTVSPropertyOp27
 70
     1
102
RTVSPropertyOp28
 70
     1
102
RTVSPropertyOp29
 70
     1
102
RTVSPropertyOp30
 70
     1
102
RTVSPropertyOp31
 70
     1
102
RTVSPropertyOp32
 70
     1
  0
XRECORD
  5
1BB
102
{ACAD_REACTORS
330
1BA
102
}
330
1BA
100
AcDbXrecord
280
     1
102
RTVSPropertyOp0
 70
     1
102
RTVSPropertyOp1
 70
     1
102
RTVSPropertyOp2
 70
     1
102
RTVSPropertyOp3
 70
     1
102
RTVSPropertyOp4
 70
     1
102
RTVSPropertyOp5
 70
     1
102
RTVSPropertyOp6
 70
     1
102
RTVSPropertyOp7
 70
     1
102
RTVSPropertyOp8
 70
     1
102
RTVSPropertyOp9
 70
     1
102
RTVSPropertyOp10
 70
     1
102
RTVSPropertyOp11
 70
     1
102
RTVSPropertyOp12
 70
     1
102
RTVSPropertyOp13
 70
     1
102
RTVSPropertyOp14
 70
     1
102
RTVSPropertyOp15
 70
     1
102
RTVSPropertyOp16
 70
     1
102
RTVSPropertyOp17
 70
     1
102
RTVSPropertyOp18
 70
     1
102
RTVSPropertyOp19
 70
     1
102
RTVSPropertyOp20
 70
     1
102
RTVSPropertyOp21
 70
     1
102
RTVSPropertyOp22
 70
     1
102
RTVSPropertyOp23
 70
     1
102
RTVSPropertyOp24
 70
     1
102
RTVSPropertyOp25
 70
     1
102
RTVSPropertyOp26
 70
     1
102
RTVSPropertyOp27
 70
     1
102
RTVSPropertyOp28
 70
     1
102
RTVSPropertyOp29
 70
     1
102
RTVSPropertyOp30
 70
     1
102
RTVSPropertyOp31
 70
     1
102
RTVSPropertyOp32
 70
     1
  0
XRECORD
  5
1B1
102
{ACAD_REACTORS
330
1B0
102
}
330
1B0
100
AcDbXrecord
280
     1
102
RTVSPropertyOp0
 70
     1
102
RTVSPropertyOp1
 70
     1
102
RTVSPropertyOp2
 70
     1
102
RTVSPropertyOp3
 70
     1
102
RTVSPropertyOp4
 70
     1
102
RTVSPropertyOp5
 70
     1
102
RTVSPropertyOp6
 70
     1
102
RTVSPropertyOp7
 70
     1
102
RTVSPropertyOp8
 70
     1
102
RTVSPropertyOp9
 70
     1
102
RTVSPropertyOp10
 70
     1
102
RTVSPropertyOp11
 70
     1
102
RTVSPropertyOp12
 70
     1
102
RTVSPropertyOp13
 70
     1
102
RTVSPropertyOp14
 70
     1
102
RTVSPropertyOp15
 70
     1
102
RTVSPropertyOp16
 70
     1
102
RTVSPropertyOp17
 70
     1
102
RTVSPropertyOp18
 70
     1
102
RTVSPropertyOp19
 70
     1
102
RTVSPropertyOp20
 70
     1
102
RTVSPropertyOp21
 70
     1
102
RTVSPropertyOp22
 70
     1
102
RTVSPropertyOp23
 70
     1
102
RTVSPropertyOp24
 70
     1
102
RTVSPropertyOp25
 70
     1
102
RTVSPropertyOp26
 70
     1
102
RTVSPropertyOp27
 70
     1
102
RTVSPropertyOp28
 70
     1
102
RTVSPropertyOp29
 70
     1
102
RTVSPropertyOp30
 70
     1
102
RTVSPropertyOp31
 70
     1
102
RTVSPropertyOp32
 70
     1
  0
XRECORD
  5
1B9
102
{ACAD_REACTORS
330
1B8
102
}
330
1B8
100
AcDbXrecord
280
     1
102
RTVSPropertyOp0
 70
     1
102
RTVSPropertyOp1
 70
     1
102
RTVSPropertyOp2
 70
     1
102
RTVSPropertyOp3
 70
     1
102
RTVSPropertyOp4
 70
     1
102
RTVSPropertyOp5
 70
     1
102
RTVSPropertyOp6
 70
     1
102
RTVSPropertyOp7
 70
     1
102
RTVSPropertyOp8
 70
     1
102
RTVSPropertyOp9
 70
     1
102
RTVSPropertyOp10
 70
     1
102
RTVSPropertyOp11
 70
     1
102
RTVSPropertyOp12
 70
     1
102
RTVSPropertyOp13
 70
     1
102
RTVSPropertyOp14
 70
     1
102
RTVSPropertyOp15
 70
     1
102
RTVSPropertyOp16
 70
     1
102
RTVSPropertyOp17
 70
     1
102
RTVSPropertyOp18
 70
     1
102
RTVSPropertyOp19
 70
     1
102
RTVSPropertyOp20
 70
     1
102
RTVSPropertyOp21
 70
     1
102
RTVSPropertyOp22
 70
     1
102
RTVSPropertyOp23
 70
     1
102
RTVSPropertyOp24
 70
     1
102
RTVSPropertyOp25
 70
     1
102
RTVSPropertyOp26
 70
     1
102
RTVSPropertyOp27
 70
     1
102
RTVSPropertyOp28
 70
     1
102
RTVSPropertyOp29
 70
     1
102
RTVSPropertyOp30
 70
     1
102
RTVSPropertyOp31
 70
     1
102
RTVSPropertyOp32
 70
     1
  0
ENDSEC
  0
EOF
